<svg id="Icons" xmlns="http://www.w3.org/2000/svg" viewBox="0 0 50 50">
  <title>X</title>
  <path d="M48.9,21.05l-8.78-9.2a1.25,1.25,0,0,0-2.16.86v2.45H20.53a6.27,6.27,0,0,0-6.25,6.25V22H12.21V19.51a1.25,1.25,0,0,0-2.14-.88L1.28,27.55a1.25,1.25,0,0,0,0,1.74l8.78,9.2a1.25,1.25,0,0,0,1.37.3,1.25,1.25,0,0,0,.79-1.16V35.18H29.64a6.2,6.2,0,0,0,2.16-.39,6.27,6.27,0,0,0,4.09-5.86v-.54H38v2.44A1.25,1.25,0,0,0,38.74,32a1.26,1.26,0,0,0,1.36-.28l8.79-8.92A1.25,1.25,0,0,0,48.9,21.05ZM33.39,28.93a3.75,3.75,0,0,1-2.45,3.51,3.69,3.69,0,0,1-1.3.24H11a1.25,1.25,0,0,0-1.25,1.25v.58l-5.8-6.07,5.8-5.88v.64A1.25,1.25,0,0,0,11,24.45H29.64a3.75,3.75,0,0,1,3.75,3.75Zm7.07-1.15v-.64a1.25,1.25,0,0,0-1.25-1.25H35.44A6.24,6.24,0,0,0,29.64,22H16.78v-.54a3.79,3.79,0,0,1,2.45-3.52,4,4,0,0,1,1.3-.23H39.21a1.25,1.25,0,0,0,1.25-1.25v-.58l5.8,6.07Z"/>
</svg>
