<svg id="Icons" xmlns="http://www.w3.org/2000/svg" viewBox="0 0 50 50">
  <title>X</title>
  <path d="M44.87,41.36H13.33a1.25,1.25,0,0,1-1.25-1.25V2A1.25,1.25,0,0,1,13.33.75H44.87A1.25,1.25,0,0,1,46.12,2V40.11A1.25,1.25,0,0,1,44.87,41.36Zm-30.29-2.5h29V3.25h-29Z"/>
  <path d="M4.13,45.31a1.25,1.25,0,0,1-1.25-1.25V9.11A8.37,8.37,0,0,1,11.24.75h2.09A1.25,1.25,0,0,1,14.58,2V40.11a1.25,1.25,0,0,1-1.25,1.25H8.07a2.7,2.7,0,0,0-2.69,2.7A1.25,1.25,0,0,1,4.13,45.31ZM11.24,3.25A5.87,5.87,0,0,0,5.38,9.11V39.62a5.14,5.14,0,0,1,2.69-.76h4V3.25Z"/>
  <path d="M42.24,49.25H8.07a5.16,5.16,0,0,1-4.84-3.33,5.28,5.28,0,0,1-.35-1.86,5.2,5.2,0,0,1,5.19-5.2H42.24a1.25,1.25,0,0,1,1.25,1.25V48A1.25,1.25,0,0,1,42.24,49.25ZM8.07,41.36a2.7,2.7,0,0,0-2.69,2.7,2.56,2.56,0,0,0,.19,1,2.66,2.66,0,0,0,2.5,1.73H41V41.36Z"/>
  <path d="M44.87,49.25H42.24a1.25,1.25,0,0,1,0-2.5h2.63a1.25,1.25,0,1,1,0,2.5Z"/>
  <path d="M35.67,15.08H21.21a1.25,1.25,0,0,1,0-2.5H35.67a1.25,1.25,0,0,1,0,2.5Z"/>
  <path d="M35.67,20.34H21.21a1.25,1.25,0,0,1,0-2.5H35.67a1.25,1.25,0,0,1,0,2.5Z"/>
</svg>
