<svg id="Icons" xmlns="http://www.w3.org/2000/svg" viewBox="0 0 50 50">
  <title>X</title>
  <path d="M48,18.18l-.16-.26a5.15,5.15,0,0,1,0-1.51,4.19,4.19,0,0,0,.89-.93,1.66,1.66,0,0,0,.13-1.64c-.5-1.09-2-1.36-2.69-1.44a3.15,3.15,0,0,1-.41-.05,3,3,0,0,1-.4-.29l-.65-.5a3.2,3.2,0,0,0-3.76-.23.42.42,0,0,1-.14.06.77.77,0,0,0-.41-.07s-2.6-.08-4.28-.16a39,39,0,0,0-7,.58c-.34,0-.73.13-1.2.24a31.85,31.85,0,0,1-5.68.78,17.62,17.62,0,0,0-3.22.44,12.93,12.93,0,0,1-5.23.07c-6.45-.83-10.3-.77-12.14,1.92a6.75,6.75,0,0,0-1,5c0,.56.1,1.15.1,1.82A13.16,13.16,0,0,0,2.4,27.54c.15.28.33.63.39.76s-.17.72-.28,1.1c-.37,1.35-.8,2.89-.43,4.08.42,1.39,2.64,7.86,2.73,8.14A1.11,1.11,0,0,0,5,42a1.4,1.4,0,0,0,.38,1.18,2.06,2.06,0,0,0,1.5.46,6.63,6.63,0,0,0,1.17-.12,1.56,1.56,0,0,0,1.38-1.11c.24-.93-.48-1.52-1.05-2-.24-.19-.8-1.16-1.25-3.47A7.42,7.42,0,0,1,8,33a10,10,0,0,0,.23,3.7,25.61,25.61,0,0,0,.88,2.44,2.39,2.39,0,0,0-.11.65A1.48,1.48,0,0,0,9.53,41a1.51,1.51,0,0,0,1,.32,3.84,3.84,0,0,0,.8-.12,3.5,3.5,0,0,1,.61-.11,1.5,1.5,0,0,0,1.47-1.33c.09-1.06-1-1.88-1.7-2.18a7.34,7.34,0,0,1-.29-1.61,18.44,18.44,0,0,1,.5-4.33c.1-.54.19-1.05.27-1.52l.37.1a10.17,10.17,0,0,0,3.72.55,1.61,1.61,0,0,1,.45.42,1.49,1.49,0,0,0,1.45,1.31h0a1.48,1.48,0,0,0,1.4-1.15,17.4,17.4,0,0,1,2.16-.8l.14-.05a8.45,8.45,0,0,1,4.12.78,72.39,72.39,0,0,1-.64,8.94,1.22,1.22,0,0,0,.34,1,2.28,2.28,0,0,0,.19,1.46,1.63,1.63,0,0,0,1.77.66c.16,0,.36,0,.62-.06A1.71,1.71,0,0,0,30,41.77a1.64,1.64,0,0,0-.88-1.59,3.17,3.17,0,0,0-.39-1A23.32,23.32,0,0,1,29.85,34a7,7,0,0,0,.28,1.12A16.36,16.36,0,0,1,30.9,39a1.07,1.07,0,0,0,.12.44,2.06,2.06,0,0,0-.11.65,1.45,1.45,0,0,0,.54,1.16,1.47,1.47,0,0,0,.94.32,3.74,3.74,0,0,0,.8-.12,3.5,3.5,0,0,1,.61-.11A1.49,1.49,0,0,0,35.27,40c.09-1-.87-1.77-1.55-2.11a11.88,11.88,0,0,1-.6-5.44,8.62,8.62,0,0,0,2.27-.82,7.82,7.82,0,0,0,3.58-5c.18-.71,2.28-2.37,3.17-2.66a6.2,6.2,0,0,0,3.55-.14,4.59,4.59,0,0,1,.52-.09c1-.15,2.54-.37,2.95-1.72C49.51,20.88,48.79,19.56,48,18.18Zm-2.11,3.07c-.29,0-.56.08-.77.13a4.6,4.6,0,0,1-2,.26,2.3,2.3,0,0,0-2,.07C39.66,22.3,37,24.25,36.54,26a5.38,5.38,0,0,1-2.42,3.42,8.82,8.82,0,0,1-2.2.68l-.82.2h0l0,0a6.1,6.1,0,0,0-2.54,1.15,3.23,3.23,0,0,0-.24-1.42c-.86-1.72-5.61-2.48-7.15-2l-.13.05a14.16,14.16,0,0,0-2.68,1,3,3,0,0,0-2.09-.95,7.25,7.25,0,0,1-2.89-.42,14.84,14.84,0,0,0-4-.56,1.24,1.24,0,0,0-1.12.7,13,13,0,0,1-1.41,2.33,10.24,10.24,0,0,0-1.84,3.87c-.2-.62-.37-1.12-.45-1.4a8,8,0,0,1,.45-2.69,5.27,5.27,0,0,0,.35-2.13,5.59,5.59,0,0,0-.64-1.52A11.07,11.07,0,0,1,3.16,22c0-.77-.06-1.43-.11-2-.13-1.52-.2-2.27.58-3.4.59-.87,1.89-1.29,4.27-1.29a45.27,45.27,0,0,1,5.49.44,15.21,15.21,0,0,0,6.06-.11,15.11,15.11,0,0,1,2.82-.38,33.9,33.9,0,0,0,6.1-.84c.4-.09.74-.17,1-.21a38.05,38.05,0,0,1,6.52-.55c1.44.07,3.54.13,4.15.15a2.54,2.54,0,0,0,1.55-.07,4.53,4.53,0,0,0,.45-.22c.43-.23.57-.31,1.07.05l.62.47a3,3,0,0,0,1.89.82,1.22,1.22,0,0,0-.3.66,6.75,6.75,0,0,0,.27,3.62l.2.33a11,11,0,0,1,.86,1.63C46.42,21.16,46.06,21.22,45.85,21.25Z"/>
</svg>
