<svg id="Icons" xmlns="http://www.w3.org/2000/svg" viewBox="0 0 50 50">
  <title>X</title>
  <path d="M47,49.25H3A2.21,2.21,0,0,1,.75,47V6.79A2.21,2.21,0,0,1,3,4.58H9.38V3A2.28,2.28,0,0,1,11.72.75h2.19A2.28,2.28,0,0,1,16.25,3V4.58h17.5V3A2.28,2.28,0,0,1,36.09.75h2.19A2.29,2.29,0,0,1,40.63,3V4.58H47a2.21,2.21,0,0,1,2.21,2.21V47A2.21,2.21,0,0,1,47,49.25ZM3.25,46.75h43.5V16.67H3.25Zm0-32.58h43.5V7.08H40.63V8.71a2.29,2.29,0,0,1-2.35,2.21H36.09a2.28,2.28,0,0,1-2.34-2.21V7.08H16.25V8.71a2.28,2.28,0,0,1-2.34,2.21H11.72A2.28,2.28,0,0,1,9.38,8.71V7.08H3.25Zm33-5.75h1.88V3.25H36.25Zm-24.37,0h1.87V3.25H11.88Zm26.4-5.17h0Zm-24.37,0h0ZM42.25,43.5H7.75A1.25,1.25,0,0,1,6.5,42.25V22.12a1.24,1.24,0,0,1,1.25-1.24h34.5a1.24,1.24,0,0,1,1.25,1.24V42.25A1.25,1.25,0,0,1,42.25,43.5ZM34.88,41H41V36.79H34.88Zm-8.63,0h6.13V36.79H26.25Zm-8.62,0h6.12V36.79H17.63ZM9,41h6.13V36.79H9Zm25.88-6.71H41V30.08H34.88Zm-8.63,0h6.13V30.08H26.25Zm-8.62,0h6.12V30.08H17.63ZM9,34.29h6.13V30.08H9Zm25.88-6.71H41v-4.2H34.88Zm-8.63,0h6.13v-4.2H26.25Zm-8.62,0h6.12v-4.2H17.63ZM9,27.58h6.13v-4.2H9Z"/>
</svg>
