<svg id="Icons" xmlns="http://www.w3.org/2000/svg" viewBox="0 0 50 50">
  <title>X</title>
  <path d="M49.12,41.44c-.37-.73-3.62-7.2-5.33-9a14.3,14.3,0,0,0-2.55-2.13l5.64-5.64c.47-.47.94-.94,1.39-1.43a3.25,3.25,0,0,0-.72-5.2,5.08,5.08,0,0,0-1.38-.59l-6.46-1.78-6.6-1.82L33,13.74l-1.38-1.37-1.08-1.08a4,4,0,0,0-.84-4,1.9,1.9,0,0,0-2.45-.5L26.91,7A7.11,7.11,0,0,0,25.4,8c-1.92,1.79-3.45,3.28-4.82,4.7a13.19,13.19,0,0,0-1.73,2.41,2,2,0,0,0,.69,3,3.89,3.89,0,0,0,3.68.56l1,1,1.45,1.46a.27.27,0,0,1,.06.12c.3,1.08.59,2.16.88,3.24l.6,2.19c-.75,0-1.51,0-2.32.1-1.24.11-2.36.18-3.38.25-5.85.37-9.06.58-15.15,5.24-2,1.57-4.95,8-5.51,9.25A1.25,1.25,0,0,0,2,43.25H48a1.23,1.23,0,0,0,1.06-.59A1.26,1.26,0,0,0,49.12,41.44Zm-20-17.27H43.78L40,28l-6.16,6.15c-.1.1-.2.21-.31.3a1,1,0,0,1-.95.26.91.91,0,0,1-.61-.65c-.62-2-1.19-4.09-1.75-6.09L30,27.27C29.69,26.24,29.41,25.21,29.13,24.17ZM26,17.87l-1.3-1.31A1.77,1.77,0,0,0,23.43,16a1.91,1.91,0,0,0-.81.19,1.47,1.47,0,0,1-1.48,0,9.1,9.1,0,0,1,1.24-1.73C23.72,13,25.22,11.55,27.1,9.8A4.17,4.17,0,0,1,28,9.21a1.49,1.49,0,0,1,.07,1.49,1.8,1.8,0,0,0,.44,2.12l1.32,1.31c.47.47.93.94,1.41,1.4a2.69,2.69,0,0,0,1.18.68L39,18l6.46,1.78a2.77,2.77,0,0,1,.73.3,1,1,0,0,1,.52.64,1,1,0,0,1-.33.76l-.22.22a1.27,1.27,0,0,0-.28-.06H28.84a1.17,1.17,0,0,0-.37.08c-.11-.4-.21-.8-.32-1.19a2.87,2.87,0,0,0-.68-1.2C27,18.86,26.49,18.37,26,17.87ZM4,40.75c1.3-2.71,3-5.82,3.93-6.53C13.37,30,16,29.86,21.68,29.49c1-.07,2.17-.14,3.42-.24a27.15,27.15,0,0,1,2.8-.1c.52,1.86,1.05,3.78,1.63,5.66a3.39,3.39,0,0,0,2.31,2.31,3.2,3.2,0,0,0,.92.13,3.58,3.58,0,0,0,2.35-.9,6,6,0,0,0,.45-.42l3.87-3.87a12.33,12.33,0,0,1,2.52,2,45.89,45.89,0,0,1,4,6.67Z"/>
</svg>
