<svg id="Icons" xmlns="http://www.w3.org/2000/svg" viewBox="0 0 50 50">
  <title>X</title>
  <g>
    <path d="M46.92,28.25c1.61-3.13,2.89-5.61,2.09-8.06-.55-1.67-2-3-4.53-4.31a37.49,37.49,0,0,0-7.17-2.06c-2.7-.62-7.22-1.64-7.83-2.53-1.75-2.55-3-3.62-4.39-3.68s-2.35,1.06-3.16,2l-.44.54C20,11.87,18.61,12.81,11,14.79,5.44,16.22,2.49,18,1.39,20.63c-.84,2-.5,4.28,1.06,7,.93,1.64.82,5.07.7,6.25a1.24,1.24,0,0,0,1.11,1.37h.13a1.25,1.25,0,0,0,1.24-1.12c.06-.52.49-5.12-1-7.75-1.14-2-1.44-3.55-.93-4.78.75-1.78,3.33-3.21,7.89-4.39,7.88-2,9.86-3.14,11.8-5.4l.49-.57c.3-.37.89-1.11,1.11-1.13,0,0,.7.06,2.44,2.6,1.08,1.57,4.25,2.39,9.34,3.54a37,37,0,0,1,6.6,1.87c1.88.94,3,1.87,3.27,2.85.48,1.46-.59,3.52-1.94,6.13l-.16.33c-1.57,3-.12,6.86-.06,7a1.25,1.25,0,1,0,2.33-.9s-1.1-2.95,0-5Z"/>
    <path d="M41.53,21.75c-1.5,0-11.11-.6-13.83-1.66-.9-.36-1.37-2.35-1.44-3.77V16A1.25,1.25,0,0,0,25,14.75h0A1.25,1.25,0,0,0,23.74,16c0,.06,0,.18,0,.33-.06,1.22-.45,3.36-1.45,3.74-2.58,1-12,1.67-13.83,1.67H8.39a1.25,1.25,0,1,0,0,2.5c6.59.08,11,.54,12.29,1l-.06.46c-.17,1.25-.4,3,.71,4.24A4.55,4.55,0,0,0,25,31.25h0A4.58,4.58,0,0,0,28.64,30c1.11-1.27.87-3,.7-4.24,0-.16,0-.31-.05-.46,1.32-.46,5.69-.92,12.28-1h0A1.33,1.33,0,0,0,42.89,23,1.26,1.26,0,0,0,41.53,21.75Zm-14.78,3A10,10,0,0,0,26.87,26c.11.83.25,1.85-.12,2.26a2.45,2.45,0,0,1-1.75.45,2.45,2.45,0,0,1-1.75-.45c-.36-.41-.23-1.44-.11-2.26a9.91,9.91,0,0,0,.11-1.29c0-.58,0-1.28-1.75-1.85a13.27,13.27,0,0,0,1.71-.48A3.91,3.91,0,0,0,25,20.89a3.74,3.74,0,0,0,1.78,1.52,11.37,11.37,0,0,0,1.71.49C26.75,23.47,26.75,24.16,26.75,24.75Z"/>
  </g>
</svg>
