<svg id="Icons" xmlns="http://www.w3.org/2000/svg" viewBox="0 0 50 50">
  <title>X</title>
  <g>
    <path d="M48.06,11.36c-1.26-1.25-4.45-1.67-7-1.64A12.63,12.63,0,0,0,36,11a8.87,8.87,0,0,0-2.55-1.7,7.7,7.7,0,0,1-4-3.71C28.6,4.27,27.72,2.75,25,2.75s-3.6,1.52-4.38,2.86a7.7,7.7,0,0,1-4,3.71A8.87,8.87,0,0,0,14.05,11,12.63,12.63,0,0,0,9,9.72c-2.54,0-5.75.39-7,1.64a1.86,1.86,0,0,0-.6,1.33c0,1.93,2.26,5.53,6.57,5.55H8A9.27,9.27,0,0,0,11,17.7c-.16.82-.29,1.68-.42,2.58a1.09,1.09,0,0,0,0,.18c0,5.73,2.49,9.57,4.13,12.11a8.78,8.78,0,0,1,1.46,2.78l-.07.16a11.41,11.41,0,0,0-.8,5c0,2.88,3,5.79,9.69,5.79s9.69-2.91,9.69-5.79a11.41,11.41,0,0,0-.8-5l-.07-.16a8.78,8.78,0,0,1,1.46-2.78c1.64-2.54,4.13-6.38,4.13-12.11a1.09,1.09,0,0,0,0-.18c-.13-.9-.26-1.76-.42-2.58a9.27,9.27,0,0,0,3.07.54h0c4.31,0,6.57-3.62,6.57-5.55A1.86,1.86,0,0,0,48.06,11.36ZM8,15.74h0a4.2,4.2,0,0,1-4-2.74,12,12,0,0,1,5-.78,9.67,9.67,0,0,1,3.59.85,11.4,11.4,0,0,0-.69,1.55A8.45,8.45,0,0,1,8,15.74ZM33.18,31.21c-1,1.61-1.86,2.87-1.86,4.21a2.5,2.5,0,0,0,.27,1.06,9.18,9.18,0,0,1,.6,4c0,1.63-2.47,3.29-7.19,3.29s-7.19-1.66-7.19-3.29a9.18,9.18,0,0,1,.6-4,2.5,2.5,0,0,0,.27-1.06c0-1.34-.82-2.6-1.86-4.21-1.57-2.42-3.71-5.72-3.73-10.67.73-5.1,1.57-7.61,4.53-8.93a10.16,10.16,0,0,0,5.16-4.74c.7-1.21.94-1.62,2.22-1.62s1.52.41,2.22,1.62a10.16,10.16,0,0,0,5.16,4.74c3,1.32,3.8,3.83,4.53,8.93C36.89,25.49,34.75,28.79,33.18,31.21Zm8.89-15.47a8.57,8.57,0,0,1-3.9-1.12,11.4,11.4,0,0,0-.69-1.55,9.62,9.62,0,0,1,3.59-.85,11.91,11.91,0,0,1,5,.78A4.2,4.2,0,0,1,42.07,15.74Z"/>
    <path d="M31.13,16.37a1.24,1.24,0,0,0-1.76,0L25,20.73l-4.37-4.36a1.24,1.24,0,0,0-1.76,1.76l4.36,4.37-4.36,4.37a1.24,1.24,0,0,0,0,1.76,1.23,1.23,0,0,0,1.76,0L25,24.27l4.37,4.36a1.23,1.23,0,0,0,1.76,0,1.24,1.24,0,0,0,0-1.76L26.77,22.5l4.36-4.37A1.24,1.24,0,0,0,31.13,16.37Z"/>
  </g>
</svg>
