<svg id="Icons" xmlns="http://www.w3.org/2000/svg" viewBox="0 0 50 50">
  <title>X</title>
  <path d="M49.12,40.44c-.37-.73-3.62-7.2-5.33-9-1.39-1.51-6.65-6.21-17.54-5.71V22.21c1.86-.59,6.41-2.2,8.32-4.39A37.39,37.39,0,0,0,37.8,13.5c1-1.47,1.44-2.13,2.11-2.28A1.25,1.25,0,0,0,40,8.81c-3.28-1.05-10.53-1.46-14.43,4.51a11.92,11.92,0,0,0-.77,1.38,10.5,10.5,0,0,0-.76-1.38c-3.9-6-11.15-5.56-14.43-4.51a1.25,1.25,0,0,0,.1,2.41c.66.15,1.13.81,2.11,2.28a37.39,37.39,0,0,0,3.23,4.32c2,2.35,7.16,4,8.69,4.5v3.52L21.52,26c-5.85.37-9.06.58-15.15,5.24-2,1.57-4.95,8-5.51,9.25A1.25,1.25,0,0,0,2,42.25H48a1.23,1.23,0,0,0,1.06-.59A1.26,1.26,0,0,0,49.12,40.44ZM27.67,14.68a9,9,0,0,1,7.91-4c.38,0,.76,0,1.1.05-.31.41-.62.88-1,1.39a37,37,0,0,1-3,4.06c-1.2,1.37-4.33,2.66-6.44,3.39A9,9,0,0,1,27.67,14.68Zm-10.73,1.5a35.74,35.74,0,0,1-3-4.06c-.34-.51-.65-1-1-1.39,2.6-.22,6.55.19,9,3.95a8.93,8.93,0,0,1,1.42,4.89C21.27,18.84,18.14,17.55,16.94,16.18ZM4,39.75c1.3-2.71,3-5.82,3.93-6.53C13.37,29,16,28.86,21.68,28.49c1-.07,2.17-.14,3.42-.24,10.68-.9,15.6,3.47,16.85,4.83a45.89,45.89,0,0,1,4,6.67Z"/>
</svg>
