<svg id="Icons" xmlns="http://www.w3.org/2000/svg" viewBox="0 0 50 50">
  <title>X</title>
  <path d="M43.13,18.7a1.25,1.25,0,0,0-1.21-1.24l-14.49-.4a1.23,1.23,0,0,0-1.19.75,1.26,1.26,0,0,0,.27,1.38l2.07,2.08-3.24,3.19V15h3.74a1.26,1.26,0,0,0,1.16-.78A1.23,1.23,0,0,0,30,12.9l-1.58-1.55h0L17.91,1.11a1.26,1.26,0,0,0-1.74,0L3.75,12.88A1.25,1.25,0,0,0,4.61,15H8.35V41.86a8,8,0,0,0,8,8h1A8,8,0,0,0,24.16,46a1.24,1.24,0,0,0,.54-.29L39,31.68,41,33.77A1.26,1.26,0,0,0,42.4,34a1.24,1.24,0,0,0,.77-1.16ZM17.34,47.32h-1a5.51,5.51,0,0,1-5.15-3.58,5.35,5.35,0,0,1-.35-1.88V13.79A1.25,1.25,0,0,0,9.6,12.54H7.75L17,3.74l9,8.8H24.09a1.25,1.25,0,0,0-1.25,1.25V41.86A5.49,5.49,0,0,1,17.34,47.32ZM39.84,29a1.25,1.25,0,0,0-1.76,0L25.34,41.57V27.38a1.23,1.23,0,0,0,.95-.35l4.94-4.86a1.22,1.22,0,0,0,.37-.88,1.25,1.25,0,0,0-.36-.89l-.75-.76,10.14.28,0,9.93Z"/>
</svg>
