<svg id="Icons" xmlns="http://www.w3.org/2000/svg" viewBox="0 0 50 50">
  <title>X</title>
  <path d="M40.36,46.25H11.64a4.4,4.4,0,0,1-4.39-4.4V21.64a4.39,4.39,0,0,1,3-4.15,16.93,16.93,0,0,1,2.84-.61c3.53-.54,6.57-1,6.55-7.1.17-4.36,2.66-7,6.48-7,3.13,0,6.5,2.17,6.53,6.92.13,7.18,3,7.41,6.33,7.68a14.72,14.72,0,0,1,2.47.33A4.4,4.4,0,0,1,44.75,22v19.9A4.4,4.4,0,0,1,40.36,46.25Zm-14.28-41c-2.45,0-3.86,1.63-4,4.58,0,8.19-5.21,9-8.67,9.53a13.48,13.48,0,0,0-2.4.49,1.89,1.89,0,0,0-1.28,1.79V41.85a1.9,1.9,0,0,0,1.89,1.9H40.36a1.9,1.9,0,0,0,1.89-1.9V22A1.91,1.91,0,0,0,40.8,20.1a14.07,14.07,0,0,0-2.06-.26c-3.37-.27-8.46-.68-8.63-10.13v0C30.09,6.41,27.93,5.25,26.08,5.25Z"/>
  <circle cx="25.98" cy="10.11" r="1.81"/>
  <path d="M38,37.25H14A1.25,1.25,0,0,1,12.75,36V25A1.25,1.25,0,0,1,14,23.75H38A1.25,1.25,0,0,1,39.25,25V36A1.25,1.25,0,0,1,38,37.25Zm-22.75-2.5h21.5v-8.5H15.25Z"/>
</svg>
