<svg id="Icons" xmlns="http://www.w3.org/2000/svg" viewBox="0 0 50 50">
  <title>X</title>
  <path d="M16,8.5A1.5,1.5,0,1,1,14.5,10,1.5,1.5,0,0,1,16,8.5M16,6a4,4,0,1,0,4,4,4,4,0,0,0-4-4Z"/>
  <path d="M30.5,32.25H22A1.25,1.25,0,0,1,20.75,31V23.29l-4.23-8.75a1.25,1.25,0,0,1,2.25-1.08l4.35,9a1.13,1.13,0,0,1,.13.54v6.75H30.5a1.25,1.25,0,0,1,0,2.5Z"/>
  <path d="M10,48.25A1.25,1.25,0,0,1,8.75,47V42A1.25,1.25,0,0,1,10,40.75H21.75V36A1.25,1.25,0,0,1,23,34.75H33.75V31A1.25,1.25,0,0,1,35,29.75h7a1.25,1.25,0,0,1,0,2.5H36.25V36A1.25,1.25,0,0,1,35,37.25H24.25V42A1.25,1.25,0,0,1,23,43.25H11.25V47A1.25,1.25,0,0,1,10,48.25Z"/>
  <path d="M13,38.25h-.16a1.25,1.25,0,0,1-1.08-1.4l1-8a1.24,1.24,0,0,1,.49-.84l8-6a1.25,1.25,0,1,1,1.5,2l-7.58,5.68-.93,7.48A1.25,1.25,0,0,1,13,38.25Z"/>
  <path d="M12,23.25H6a1.25,1.25,0,0,1,0-2.5h5.43l5.76-6.57a1.26,1.26,0,0,1,.94-.43H25a1.25,1.25,0,0,1,1.16.79l2,5a1.25,1.25,0,1,1-2.32.92l-1.69-4.21H18.7l-5.76,6.57A1.26,1.26,0,0,1,12,23.25Z"/>
</svg>
