<svg id="Icons" xmlns="http://www.w3.org/2000/svg" viewBox="0 0 50 50">
  <title>X</title>
  <path d="M40.39,28.74c5.77-1.61,8.78-2.55,8.78-4.66,0-2.66-3.89-3.39-8-4.17a32.73,32.73,0,0,1-4.62-1.08c1.12-.43,3-.91,4.14-1.2a19.16,19.16,0,0,0,3.71-1.16c1.33-.74,1.33-1.65,1.21-2.12-.2-.84-.63-2.59-15.54-3a1.22,1.22,0,0,0-1.28,1.17,1.25,1.25,0,0,0,1.14,1.32c1.32.12,2.7.25,4,.39-2.31.59-4.95,1.25-7,1.76-1.72.57-4,1.55-4.28,3.41a2.67,2.67,0,0,0,1.23,2.49L24,22a30.57,30.57,0,0,0,5,1.41c1.06.25,2.49.6,3.68.92l-2,.7c-3.58,1.27-8.18,2.9-11.55,4.46a41.23,41.23,0,0,0,.7-7.69c0-11.24-4.17-20-9.5-20s-9.5,8.8-9.5,20c0,10.34,3.54,18.6,8.25,19.86V47a1.25,1.25,0,0,0,2.5,0v-.58H42.42a1.25,1.25,0,0,0,.8-2.21c-4.14-3.45-10.91-9.8-11.51-12.09C32.12,31,37.5,29.54,40.39,28.74Zm-.24-13.59a1.42,1.42,0,0,0,.58-.48l.85.14-1.51.39-.26.07ZM3.33,21.79c0-10.34,3.69-17.54,7-17.54s7,7.2,7,17.54a36.59,36.59,0,0,1-1.15,9.39,1.23,1.23,0,0,0-.2.75c-1.1,3.68-2.73,6.21-4.4,7.07V28.27l3.85-3.84a1.27,1.27,0,0,0,0-1.77,1.25,1.25,0,0,0-1.77,0l-2.08,2.07V13.08a1.25,1.25,0,0,0-2.5,0v3.4L7.55,15a1.25,1.25,0,0,0-1.77,1.77L9.08,20V39C6.16,37.49,3.33,30.84,3.33,21.79Zm26,10.85c.72,2.9,6.25,8.17,9.76,11.28H11.58V41.65c2.88-.77,5.31-4.13,6.77-9,3.14-1.73,9.13-3.85,13.17-5.28,2.27-.8,3.91-1.39,4.58-1.72a1.5,1.5,0,0,0,.89-1.5c-.15-1.32-1.45-1.76-7.43-3.19A43.38,43.38,0,0,1,25.2,19.8l-.07-.07c.12-.17.62-.69,2.46-1.31,1.77-.43,6.15-1.52,9.26-2.33-2.09.65-3.29,1.33-3.48,2.47a1.92,1.92,0,0,0,1,2c1.34.89,3.76,1.35,6.32,1.83,1.83.35,5.15,1,5.86,1.6-1,.71-4.47,1.69-6.85,2.36C33.69,28,28.49,29.46,29.29,32.64Z"/>
</svg>
