<svg id="Icons" xmlns="http://www.w3.org/2000/svg" viewBox="0 0 50 50">
  <title>X</title>
  <path d="M48,25.3H46c-2-3.05-4.93-4.71-7.5-6.17l-.87-.5a7,7,0,0,0-5.65-.52,10.18,10.18,0,0,1-2.34.35,21,21,0,0,0-4.9.84,20.13,20.13,0,0,1-4.3.76c-2.66,0-3.21,0-4.7-1.29-2.47-2.15-6.75-.36-9,1.59A31.69,31.69,0,0,0,2.54,25.3H2A1.25,1.25,0,0,0,.75,26.55V39.09A1.25,1.25,0,0,0,2,40.34H7.93V45a1.25,1.25,0,0,0,1.25,1.25h5.06A1.25,1.25,0,0,0,15.49,45V40.34h19V45a1.25,1.25,0,0,0,1.25,1.25h5.06A1.25,1.25,0,0,0,42.07,45V40.34H48a1.25,1.25,0,0,0,1.25-1.25V26.55A1.25,1.25,0,0,0,48,25.3ZM8.34,22.25c1.71-1.49,4.65-2.53,5.72-1.6,2.19,1.91,3.49,1.91,6.34,1.91a21.52,21.52,0,0,0,4.9-.84A20.13,20.13,0,0,1,29.6,21a12.64,12.64,0,0,0,2.89-.41c1.43-.32,2.46-.56,3.84.24l.89.51a22.3,22.3,0,0,1,5.56,4H5.64A21.89,21.89,0,0,1,8.34,22.25ZM46.75,37.84H40.82a1.25,1.25,0,0,0-1.25,1.25v4.66H37V39.09a1.25,1.25,0,0,0-1.25-1.25H14.24A1.25,1.25,0,0,0,13,39.09v4.66H10.43V39.09a1.25,1.25,0,0,0-1.25-1.25H3.25v-10h43.5Z"/>
</svg>
