<svg id="Icons" xmlns="http://www.w3.org/2000/svg" viewBox="0 0 50 50">
  <title>X</title>
  <path d="M47.87,10.23,42.53,5a1.24,1.24,0,0,0-1.72,0L35.16,10.2a1.24,1.24,0,0,0-.4.92v9.32H31.5V11.12a1.24,1.24,0,0,0-.37-.89L25.78,5a1.24,1.24,0,0,0-1.72,0L18.41,10.2a1.28,1.28,0,0,0-.4.92v9.32H14.76V11.12a1.25,1.25,0,0,0-.38-.89L9,5A1.26,1.26,0,0,0,7.31,5L1.67,10.2a1.25,1.25,0,0,0-.41.92v35a1.25,1.25,0,0,0,1.25,1.25h11a1.25,1.25,0,0,0,1.25-1.25V36.34H18V46.1a1.25,1.25,0,0,0,1.25,1.25h11A1.25,1.25,0,0,0,31.5,46.1V36.34h3.26V46.1A1.25,1.25,0,0,0,36,47.35H47a1.25,1.25,0,0,0,1.25-1.25v-35A1.25,1.25,0,0,0,47.87,10.23ZM12.26,44.85H3.76V11.67l4.38-4,4.12,4Zm2.5-11V22.94H18v10.9ZM29,44.85H20.51V11.67l4.38-4,4.11,4Zm2.5-11V22.94h3.26v10.9Zm14.25,11H37.26V11.67l4.37-4,4.12,4Z"/>
</svg>
