<svg id="Icons" xmlns="http://www.w3.org/2000/svg" viewBox="0 0 50 50">
  <title>X</title>
  <g>
    <path d="M49.12,41.44c-.37-.73-3.62-7.2-5.33-9a18.42,18.42,0,0,0-9.13-5c.17-8.62,4.14-12.65,5.66-14.19.61-.61,1.19-1.2.83-2.05a1.33,1.33,0,0,0-1.29-.82c-2,0-11.46,5.47-12.19,16.28h-.16c0-.73-.05-1.45-.11-2.14.21-5.67,1.79-13.09,8.07-16.48a1.44,1.44,0,0,0,1-1.59,1.35,1.35,0,0,0-1.24-1c-1.89-.09-7.34,1.3-10.44,7.75C21,4.34,14.47.75,12.72.75a1.31,1.31,0,0,0-1.27.84c-.33.87.31,1.43.78,1.84,3.64,3.16,6.09,7.86,7.33,14-3.35-4.66-8.11-7.09-9.43-7.09a1.32,1.32,0,0,0-1.29.84c-.34.88.29,1.46.91,2,1.68,1.52,6.09,5.54,6.23,14.33-3,.55-5.71,1.7-9.61,4.69-2,1.57-4.95,8-5.51,9.25A1.25,1.25,0,0,0,2,43.25H48a1.23,1.23,0,0,0,1.06-.59A1.26,1.26,0,0,0,49.12,41.44ZM34.71,16.63a24,24,0,0,0-2.53,10.31c-.64-.09-1.3-.16-2-.21A16.77,16.77,0,0,1,34.71,16.63Zm-8.5-.42c-.06.2-.11.42-.17.63v0ZM25,26.75H24.9L23,26.9c-.11-7.32-1.34-13.41-3.69-18.18C22.12,12.4,24.78,18.19,25,26.75ZM15.9,17a15.71,15.71,0,0,1,4.56,10.1l-2,.16A22.58,22.58,0,0,0,15.9,17ZM4,40.75c1.3-2.71,3-5.82,3.93-6.53C13.37,30,16,29.86,21.68,29.49c1-.07,2.17-.14,3.42-.24l1-.06a1,1,0,0,0,.17,0,1,1,0,0,0,.29-.06c.65,0,1.28,0,1.89,0a1.1,1.1,0,0,0,.4.08,1,1,0,0,0,.3-.06c7.89.34,11.7,3.75,12.78,4.92a45.89,45.89,0,0,1,4,6.67Z"/>
    <circle cx="40.5" cy="36.5" r="1.5"/>
    <circle cx="21.5" cy="32.5" r="1.5"/>
    <circle cx="27.5" cy="36.5" r="1.5"/>
    <circle cx="32.5" cy="33.5" r="1.5"/>
    <circle cx="17.5" cy="36.5" r="1.5"/>
    <circle cx="8.5" cy="37.5" r="1.5"/>
  </g>
</svg>
