<svg id="Icons" xmlns="http://www.w3.org/2000/svg" viewBox="0 0 50 50">
  <title>X</title>
  <path d="M12.78,31.14a1.22,1.22,0,0,1-.9-.39c-.31-.31-.46-.49-.46-.49-.66-.76-1.61-1.91-1.91-2.28a1.25,1.25,0,1,1,2-1.56c.29.36,1.21,1.48,1.85,2.2l.37.4a1.26,1.26,0,0,1-.9,2.12Z"/>
  <path d="M18.21,36.13h0a1.26,1.26,0,0,1-.31-1.75,1.23,1.23,0,0,1,1.71-.32l-.66,1.06Z"/>
  <path d="M28.64,41.62A6.14,6.14,0,0,1,26,40.79c-.38-.19-.76-.38-1.13-.58h0a1.23,1.23,0,0,1-.74-1.14,1.25,1.25,0,0,1,1.25-1.25,1.3,1.3,0,0,1,.58.14l1.15.59a4.21,4.21,0,0,0,1.6.56.85.85,0,0,0,.13-.79,1.64,1.64,0,0,0-.13-.19,1.24,1.24,0,0,1,.15-1.76,1.26,1.26,0,0,1,1.76.15,3.2,3.2,0,0,1-.42,4.59A2.45,2.45,0,0,1,28.64,41.62Z"/>
  <path d="M32,39.63a4.68,4.68,0,0,1-2.16-.74c-.29-.15-.59-.33-.86-.5-.09,0-.84-.51-1.21-.79a1.54,1.54,0,0,1-.19-.17,1.25,1.25,0,0,1,1.54-1.93.81.81,0,0,1,.24.17s.42.28.92.59c.23.14.48.29.73.42a3.57,3.57,0,0,0,1,.45.64.64,0,0,0,.38-.31c.12-.23,0-.58-.11-.72a1.26,1.26,0,0,0-.39-.44,1.25,1.25,0,0,1,1.37-2.09c.27.15.55.34.86.55s.56.42.76.58.33.26.39.29a1.08,1.08,0,0,0,.48-.29.73.73,0,0,0,.3-.41,3,3,0,0,0,.09-.88,1.28,1.28,0,0,1,1-1.47,1.22,1.22,0,0,1,1.46.91,4.94,4.94,0,0,1-.09,2,3.18,3.18,0,0,1-1.07,1.73,3.34,3.34,0,0,1-2.25.9,2,2,0,0,1-.36,0,2.62,2.62,0,0,1-.2.53,3.12,3.12,0,0,1-2.31,1.64A1.67,1.67,0,0,1,32,39.63Z"/>
  <path d="M22.29,38.59a1.23,1.23,0,0,1-.66-.19l-.19-.12A1.25,1.25,0,0,1,21,36.57a1.26,1.26,0,0,1,1.72-.44l.23.14a1.25,1.25,0,0,1,.4,1.73A1.24,1.24,0,0,1,22.29,38.59Z"/>
  <path d="M16.13,34.21a1.28,1.28,0,0,1-.84-.32l.16-.18.62-.8.81-.95L17,32a1.25,1.25,0,0,1-.84,2.18Z"/>
  <path d="M39.18,35.13a5.07,5.07,0,0,1-2.37-.88c-.47-.26-3.11-1.83-3.11-1.83L35,30.27s2.58,1.53,3,1.79a6.15,6.15,0,0,0,1.17.57.57.57,0,0,0,.34-.21c0-.07,0-.25-.19-.77-.35-.73-.91-1-2.64-1.91-.73-.36-1.63-.82-2.71-1.42-.75-.43-1.13-.67-1.58-.95s-1-.66-2.32-1.39c-1.62-.93-2.21-1.22-2.53-1.37a3.63,3.63,0,0,1-.84-.52l-.54-.44a5.93,5.93,0,0,0-.84-.62l-.44.33a8.55,8.55,0,0,1-3.6,1.27,3.59,3.59,0,0,1-2.91-.26,2.53,2.53,0,0,1-1.1-2.5,2.22,2.22,0,0,1,1-1.36,5.76,5.76,0,0,0,1.12-1,14.38,14.38,0,0,1,3.2-2.75A10.48,10.48,0,0,1,25.88,15a24.17,24.17,0,0,1,3.76-.09,5.37,5.37,0,0,1,2.65.37,3.39,3.39,0,0,1,1,.71,4.24,4.24,0,0,0,.77.61,4.4,4.4,0,0,0,1.16.56,2.13,2.13,0,0,0,.83,0,1.84,1.84,0,0,0,.83-.36,1.25,1.25,0,0,1,1.51,2,4.42,4.42,0,0,1-1.92.84,4.47,4.47,0,0,1-1.8-.08,6.47,6.47,0,0,1-2-.88,6.82,6.82,0,0,1-1.16-.93,1.21,1.21,0,0,0-.33-.26c-.18-.09-.32-.11-1.55-.11-1.64,0-2.95,0-3.21,0A9.2,9.2,0,0,0,24,18.82a12.24,12.24,0,0,0-2.73,2.33,8.51,8.51,0,0,1-1.17,1.14c.22,0,.53-.08.79-.12a6.18,6.18,0,0,0,2.62-.88l.31-.23a2.15,2.15,0,0,1,.94-.49,3.49,3.49,0,0,1,3,1.15l.48.39a1.6,1.6,0,0,0,.4.25c.35.17,1,.48,2.69,1.45,1.32.76,1.91,1.13,2.41,1.45s.77.49,1.47.88c1,.58,1.86,1,2.6,1.37,1.84.92,3,1.53,3.78,3.08a3.4,3.4,0,0,1,.17,2.94,3,3,0,0,1-2.29,1.58A1.51,1.51,0,0,1,39.18,35.13Z"/>
  <path d="M17.19,19.61a4.31,4.31,0,0,1-2.45-1,1.28,1.28,0,0,1-.3-1.76,1.23,1.23,0,0,1,1.73-.29l0,0c.65.47.9.5,1,.5a4.16,4.16,0,0,0,1.52-.52,1.25,1.25,0,1,1,1.07,2.25,6.24,6.24,0,0,1-2.27.75Z"/>
  <path d="M14,35.84a3.07,3.07,0,0,1-2.4-1.34,3.87,3.87,0,0,1-.79-1.71,4.74,4.74,0,0,1,1-3.68,4.65,4.65,0,0,1,1.77-1.4c1.16-.54,3.28-.85,4.38.45a2.69,2.69,0,0,1,.74,2.51,1.25,1.25,0,0,1-1.51.92,1.23,1.23,0,0,1-.92-1.51s-.06-.14-.09-.17L16,29.77a2.4,2.4,0,0,0-1.43.21,2.35,2.35,0,0,0-.86.69,2.32,2.32,0,0,0-.52,1.67,1.63,1.63,0,0,0,.26.58c.32.39.49.42.49.42h.82a1.25,1.25,0,0,1,0,2.5H14Z"/>
  <path d="M17,38a3,3,0,0,1-1.87-.63A3.1,3.1,0,0,1,14,35.1h0c-.06-1,.46-1.88,1.41-3.55.19-.34.31-.53.4-.68s.17-.28.3-.54.23-.47.31-.63a2.86,2.86,0,0,1,.63-.95,3.22,3.22,0,0,1,3-.84A3.33,3.33,0,0,1,22.39,31a3.18,3.18,0,0,1-.83,2.13c-.17.23-.37.51-.61.88-.49.75-.81,1.34-1.06,1.81-.49.93-.92,1.73-2,2A3,3,0,0,1,17,38ZM16.48,35a.74.74,0,0,0,.17.49.62.62,0,0,0,.51,0,3.06,3.06,0,0,0,.52-.82,23.18,23.18,0,0,1,1.18-2c.26-.41.48-.71.66-1a3.67,3.67,0,0,0,.37-.55c0-.31-.2-.74-.49-.81a.74.74,0,0,0-.62.2c0,.05-.06.12-.11.23s-.19.4-.36.72-.24.45-.36.66-.2.32-.37.63A11.92,11.92,0,0,0,16.48,35Z"/>
  <path d="M20.53,39.58a4.73,4.73,0,0,1-.53,0,3.17,3.17,0,0,1-2.15-1.28,3.26,3.26,0,0,1-.46-1.09,3.62,3.62,0,0,1-.09-1A7.13,7.13,0,0,1,19,32.77l.21-.3c1-1.44,1.36-1.88,2.2-2.09A3.18,3.18,0,0,1,24.1,31a3.14,3.14,0,0,1,1.1,2.38,4.38,4.38,0,0,1-.81,2.21c-.31.57-.49.84-.63,1.06a3.71,3.71,0,0,0-.34.58c-.12.24-.19.42-.25.56A2.51,2.51,0,0,1,22.4,39,3,3,0,0,1,20.53,39.58Zm-.7-3a.68.68,0,0,0,.09.26.72.72,0,0,0,.44.2.86.86,0,0,0,.44,0l.06-.15c.07-.17.17-.4.31-.7a7.12,7.12,0,0,1,.5-.87,9.52,9.52,0,0,0,.53-.88,5.05,5.05,0,0,0,.51-1.08.68.68,0,0,0-.22-.4.69.69,0,0,0-.44-.15c-.15.17-.46.61-.85,1.14l-.2.29c-1,1.4-1.19,1.9-1.2,2.08A1,1,0,0,0,19.83,36.6Z"/>
  <path d="M23.49,41.23A2.83,2.83,0,0,1,22.38,41a3.06,3.06,0,0,1-1.64-1.87h0c-.21-.72,0-1.38.88-3.36a4.19,4.19,0,0,1,1.41-2,3,3,0,0,1,4.08.51,3.21,3.21,0,0,1,.76,2.19,2.66,2.66,0,0,1-.44,1.31l-.33.62-.37.74a3.07,3.07,0,0,1-.94,1.32,3.51,3.51,0,0,1-1.41.68A3.87,3.87,0,0,1,23.49,41.23Zm-.31-2.71a.58.58,0,0,0,.19.19.92.92,0,0,0,.43,0,1.29,1.29,0,0,0,.43-.2,2.41,2.41,0,0,0,.25-.45c.1-.21.22-.47.4-.8s.27-.52.36-.69a1.82,1.82,0,0,0,.16-.29.94.94,0,0,0-.18-.37.63.63,0,0,0-.37-.21.66.66,0,0,0-.42.13,3.68,3.68,0,0,0-.54,1A13.69,13.69,0,0,0,23.18,38.52Z"/>
  <path d="M6.31,27a1.21,1.21,0,0,1-.88-.37l-4-4a1.23,1.23,0,0,1,0-1.76L11.64,10.59a1.24,1.24,0,0,1,1.76,0l4,4a1.24,1.24,0,0,1,0,1.77L7.2,26.6A1.25,1.25,0,0,1,6.31,27ZM4.06,21.7,6.31,24l8.46-8.45-2.25-2.26Z"/>
  <path d="M42.87,29.74A1.24,1.24,0,0,1,41.74,29L35.53,16a1.25,1.25,0,0,1-.05-1,1.29,1.29,0,0,1,.65-.71l5.13-2.44a1.26,1.26,0,0,1,1.67.59l6.2,13.06a1.28,1.28,0,0,1,0,1,1.24,1.24,0,0,1-.64.71L43.4,29.62A1.24,1.24,0,0,1,42.87,29.74ZM38.33,16l5.13,10.8,2.87-1.36L41.2,14.65Z"/>
</svg>
