<svg id="Icons" xmlns="http://www.w3.org/2000/svg" viewBox="0 0 50 50">
  <title>X</title>
  <path d="M47.73,33.43c0-9.78-7.5-18.34-17.79-20.39l-.59-.1v-.25a2.2,2.2,0,0,0-2.19-2.19h-5A2.19,2.19,0,0,0,20,12.65a.43.43,0,0,0,0,0v.5l-.71.15C9.62,15.85,2.88,24.09,2.82,33.42H2.51A1.76,1.76,0,0,0,.75,35.18v3.56A1.76,1.76,0,0,0,2.51,40.5h45a1.76,1.76,0,0,0,1.76-1.76V35.18A1.77,1.77,0,0,0,47.73,33.43Zm-1,4.57H3.25V35.92h.87a1.27,1.27,0,0,0,.91-.4,1.19,1.19,0,0,0,.33-.93c0-.35,0-.7,0-1.05,0-8.24,6-15.55,14.52-17.76l.12,0V27.87a1.25,1.25,0,0,0,2.5,0V13H26.6V27.87a1.25,1.25,0,0,0,2.5,0V15.43l.4.07c9.12,1.81,15.73,9.4,15.73,18,0,.36,0,.7,0,1.05a1.24,1.24,0,0,0,.34.93,1.27,1.27,0,0,0,.91.4h.31Z"/>
</svg>
