<svg id="Icons" xmlns="http://www.w3.org/2000/svg" viewBox="0 0 50 50">
  <title>X</title>
  <path d="M26.05,3.46h0M24.85,4.6l4.87,4.79a2.51,2.51,0,0,0-1.42,2.26V18a3.21,3.21,0,0,1-3.21,3.2h-.72a3.22,3.22,0,0,1-3.2-3.2V11.65a2.51,2.51,0,0,0-1.36-2.23l5-4.82m0-3.17a.82.82,0,0,0-.55.22l-9,8.63a.79.79,0,0,0,.55,1.37h2.83V18A5.58,5.58,0,0,0,19,20a5.72,5.72,0,0,0,5.34,3.73h.72A5.71,5.71,0,0,0,30.8,18V11.65h2.82a.79.79,0,0,0,.74-.5.8.8,0,0,0-.18-.87L25.43,1.66a.82.82,0,0,0-.56-.23Z"/>
  <path d="M48,42.25H2A1.25,1.25,0,0,1,.86,40.49c.56-1.27,3.47-7.68,5.51-9.25h0c6.09-4.66,9.3-4.87,15.15-5.24,1-.07,2.14-.14,3.38-.25,11.82-1,17.44,4.07,18.89,5.64,1.71,1.85,5,8.32,5.33,9a1.26,1.26,0,0,1-.06,1.22A1.23,1.23,0,0,1,48,42.25ZM4,39.75H46a45.89,45.89,0,0,0-4-6.67c-1.25-1.36-6.16-5.73-16.85-4.83-1.25.1-2.38.17-3.42.24-5.7.37-8.31.53-13.79,4.73h0C7,33.93,5.26,37,4,39.75Zm3.17-7.52h0Z"/>
</svg>
