<svg id="Icons" xmlns="http://www.w3.org/2000/svg" viewBox="0 0 50 50">
  <title>X</title>
  <path d="M25.09,9.93a3.22,3.22,0,0,1,3,2.1,3.08,3.08,0,0,1,.21,1.11v6.37a2.49,2.49,0,0,0,1.36,2.23l-5,4.82-4.87-4.79a2.5,2.5,0,0,0,1.42-2.26V13.14a3.21,3.21,0,0,1,3.2-3.21h.72m0-2.5h-.72a5.71,5.71,0,0,0-5.7,5.71v6.37H15.84a.79.79,0,0,0-.73.5.78.78,0,0,0,.17.87L24,29.5a.8.8,0,0,0,1.11,0l9-8.62a.8.8,0,0,0-.55-1.38H30.8V13.14a5.64,5.64,0,0,0-.36-2,5.73,5.73,0,0,0-5.35-3.73Z"/>
  <path d="M48,48.25H2A1.25,1.25,0,0,1,.86,46.49c.56-1.27,3.47-7.68,5.51-9.25h0c6.09-4.66,9.3-4.87,15.15-5.24,1-.07,2.14-.14,3.38-.25,11.81-1,17.44,4.07,18.89,5.64,1.71,1.85,5,8.32,5.33,9a1.26,1.26,0,0,1-.06,1.22A1.23,1.23,0,0,1,48,48.25ZM4,45.75H46a45.89,45.89,0,0,0-4-6.67c-1.25-1.36-6.16-5.72-16.85-4.83-1.25.1-2.38.17-3.42.24-5.7.37-8.31.53-13.79,4.73h0C7,39.93,5.26,43,4,45.75Z"/>
</svg>
