<svg id="Icons" xmlns="http://www.w3.org/2000/svg" viewBox="0 0 50 50">
  <title>X</title>
  <path d="M48.33,12.48a1.25,1.25,0,0,0-1.77,0,8.69,8.69,0,0,1-2.24,1.62l-9-9A9,9,0,0,1,37,2.88,1.24,1.24,0,0,0,35.2,1.12a11.24,11.24,0,0,0-2.51,3.79v0c-1.32,3.21-1.32,6.91-1.25,10.55-4.59,0-9.13.33-12.46,3.66s-3.59,7.75-3.5,12.26c-5.21-.18-10.54-.21-14.38,3.82a1.26,1.26,0,0,0,0,1.77,1.23,1.23,0,0,0,.86.34,1.26,1.26,0,0,0,.91-.39,8.68,8.68,0,0,1,2.16-1.65l9.08,9.09a8.62,8.62,0,0,1-1.65,2.16,1.25,1.25,0,0,0,.86,2.15,1.28,1.28,0,0,0,.87-.34c4-3.83,4-9.16,3.82-14.38,4.5.1,9-.21,12.26-3.5S34,22.6,34,18c5.2.09,10.52.07,14.36-3.77A1.25,1.25,0,0,0,48.33,12.48ZM7.63,34.33a30.33,30.33,0,0,1,7.91-.43,30.34,30.34,0,0,1-.42,7.91ZM18,31.47c-.08-3.66.1-7,2-9.61l7.65,7.65C25,31.37,21.63,31.55,18,31.47Zm11.38-3.72L21.7,20.09c2.59-1.9,6-2.14,9.76-2.11C31.49,21.7,31.25,25.16,29.35,27.75Zm4.58-12.23a32.61,32.61,0,0,1,.48-7.79L41.71,15A33.59,33.59,0,0,1,33.93,15.52Z"/>
</svg>
