<svg id="Icons" xmlns="http://www.w3.org/2000/svg" viewBox="0 0 50 50">
  <title>X</title>
  <g>
    <path d="M41.9,27a1.31,1.31,0,0,0-2.16,0c-.71,1.22-4.28,7.41-4.28,9.9a5.36,5.36,0,1,0,10.72,0C46.18,34.39,42.61,28.2,41.9,27ZM40.82,39.75A2.87,2.87,0,0,1,38,36.88c0-1.06,1.45-4.11,2.86-6.72,1.41,2.61,2.86,5.66,2.86,6.72A2.87,2.87,0,0,1,40.82,39.75Z"/>
    <path d="M41,18.38c0-2.49-3.57-8.68-4.28-9.9a1.31,1.31,0,0,0-2.16,0c-.71,1.22-4.28,7.41-4.28,9.9a5.36,5.36,0,1,0,10.72,0Zm-8.22,0c0-1.05,1.45-4.11,2.86-6.72,1.42,2.61,2.86,5.67,2.86,6.72a2.86,2.86,0,1,1-5.72,0Z"/>
    <path d="M22.86,6.88V5.25h1.6a1.25,1.25,0,0,0,0-2.5h-14a1.25,1.25,0,0,0,0,2.5H12V6.61A15.71,15.71,0,0,1,8.89,16,18.23,18.23,0,0,0,5.27,26.87V43.5A4.75,4.75,0,0,0,10,48.25h13.9a4.75,4.75,0,0,0,4.75-4.75V26.6a19.4,19.4,0,0,0-3.1-10.54A16.88,16.88,0,0,1,22.86,6.88Zm1.06,38.87H10A2.25,2.25,0,0,1,7.77,43.5V35.05h18.4V43.5A2.25,2.25,0,0,1,23.92,45.75Zm2.25-13.2H7.77V26.87a15.77,15.77,0,0,1,3.12-9.38A18.24,18.24,0,0,0,14.52,6.61V5.45h5.84V6.88a19.33,19.33,0,0,0,3.11,10.54,16.89,16.89,0,0,1,2.7,9.18Z"/>
  </g>
</svg>
