<svg id="Icons" xmlns="http://www.w3.org/2000/svg" viewBox="0 0 50 50">
  <title>X</title>
  <g>
    <path d="M49.34,18.58a1.42,1.42,0,0,0-1.35-.8c-3,0-18.25,10.51-18.25,30.19a1.25,1.25,0,1,0,2.5,0A32,32,0,0,1,43.48,23.24c-3,4.45-6.74,12.16-6.74,24.73a1.25,1.25,0,0,0,2.5,0c0-16.38,6.57-24,9-26.81C49.2,20.11,49.75,19.47,49.34,18.58Z"/>
    <path d="M41,11.79c.51-.32,1.29-.8,1-1.74a1.31,1.31,0,0,0-1.25-1c-3-.1-11.66,2.47-16.15,14.77C18.69,6.6,7.57.78,6,.78a1.35,1.35,0,0,0-1.31.82c-.36.87.22,1.45,1,2.17C12.09,10.19,16.18,20,17.86,33.16,13,23.07,4.21,17.78,2,17.78a1.39,1.39,0,0,0-1.35.83c-.38.9.19,1.5,1.15,2.49,2.72,2.82,10,10.32,10,26.87a1.25,1.25,0,0,0,2.5,0c0-12.23-3.89-20-7.14-24.47A31.17,31.17,0,0,1,18.74,48a1.25,1.25,0,0,0,2.5,0c0-17.73-3.2-31.39-9.54-40.75C17.06,12.36,24.23,23,25.53,41.82v.08s0,.06,0,.09q.2,2.86.2,6a1.25,1.25,0,0,0,2.5,0c0-2.14-.07-4.18-.2-6.15C28.36,31.52,30.87,18,41,11.79ZM25.88,28.14c2-7.89,5.53-12,8.62-14.19-4.33,4.8-6.67,11.15-7.87,17.44C26.4,30.27,26.15,29.19,25.88,28.14Z"/>
  </g>
</svg>
