<svg id="Icons" xmlns="http://www.w3.org/2000/svg" viewBox="0 0 50 50">
  <title>X</title>
  <path d="M48.14,21.73a1.38,1.38,0,0,0-1.33-.82c-1.94,0-9.44,4.48-13.9,13.06,1.56-11.26,5.15-19.76,10.76-25.32.66-.66,1.23-1.22.87-2.09a1.34,1.34,0,0,0-1.29-.82c-1.61,0-6.68,3.1-11,9.25a44.16,44.16,0,0,0-5.56,11.06,23.39,23.39,0,0,0-5.41-8.59V3A1.25,1.25,0,0,0,20,1.75H4A1.25,1.25,0,0,0,2.75,3V48A1.25,1.25,0,0,0,4,49.25H20A1.25,1.25,0,0,0,21.25,48V28.66a50.54,50.54,0,0,1,2.2,13.87c-.11,1.74-.18,3.55-.18,5.44a1.25,1.25,0,0,0,2.5,0c0-18.84,6.38-29.73,11.49-35.2-5.15,8.32-7.75,20.12-7.75,35.2A1.25,1.25,0,0,0,32,48a28.4,28.4,0,0,1,9.63-21.19C38.85,30.9,35.75,37.65,35.75,48a1.25,1.25,0,0,0,2.5,0c0-14.71,6.42-21.36,8.84-23.87C48,23.21,48.52,22.62,48.14,21.73Zm-29.39,25H5.25v-2.5H7a1.25,1.25,0,0,0,0-2.5H5.25v-2.5H10a1.25,1.25,0,0,0,0-2.5H5.25v-2.5H7a1.25,1.25,0,0,0,0-2.5H5.25v-2.5H10a1.25,1.25,0,0,0,0-2.5H5.25v-2.5H7a1.25,1.25,0,0,0,0-2.5H5.25v-2.5H10a1.25,1.25,0,0,0,0-2.5H5.25v-2.5H7a1.25,1.25,0,0,0,0-2.5H5.25V9.25H10a1.25,1.25,0,0,0,0-2.5H5.25V4.25h13.5V15.42a11.87,11.87,0,0,0-6.5-2.27,1.39,1.39,0,0,0-1.24,1c-.25.94.53,1.42,1,1.7A20,20,0,0,1,18.75,23Zm2.43-24.57a1.18,1.18,0,0,0-.32-.58,25.93,25.93,0,0,0-2.06-3c2.45,2.08,5,5.64,6.57,11.72-.18.72-.36,1.47-.53,2.23A36.29,36.29,0,0,0,21.18,22.18Z"/>
</svg>
