<svg id="Icons" xmlns="http://www.w3.org/2000/svg" viewBox="0 0 50 50">
  <title>X</title>
  <g>
    <path d="M48.07,25.28a1.86,1.86,0,0,0-1.47.31,2.18,2.18,0,0,0-.75,1.16c-.22-.27-.46-.61-.73-1l-.25-.38c-1-1.47-2.17-3.3-2.81-4.47-.23-.42-.44-.91-.67-1.42a12.65,12.65,0,0,0-1.72-3.09,9.81,9.81,0,0,0-6-3.46c-1-.13-2-.22-3-.3a30,30,0,0,1-3.65-.45,14.48,14.48,0,0,0-4.6-.4c-.7,0-1.69.11-2.84.22a47.64,47.64,0,0,1-5.91.33c-.69,0-1.37-.11-2-.17A12.65,12.65,0,0,0,6,12.43c-3.18,1.14-3.61,3.7-3.39,9,.15,2.37.36,4,.5,5.06a8.7,8.7,0,0,1,.15,1.66,8.18,8.18,0,0,0-.35,1,2.6,2.6,0,0,1-.36.85c-.71,1.05-.71,1.63-.71,3.81v.57a14,14,0,0,1-.33,3.86,12.24,12.24,0,0,1-.35,1.22,2,2,0,0,0,.32,2.3,6,6,0,0,0,0,.6,2,2,0,0,0,.66,1.41,2.09,2.09,0,0,0,1.38.46l.36,0a1.71,1.71,0,0,0,1.42-1,1.87,1.87,0,0,0-.14-1.79,2.18,2.18,0,0,0-.33-.39A1,1,0,0,1,4.45,40a24.86,24.86,0,0,1,1-4.59c.33-.62.65-1.3.78-1.57l.12-.17c.19.52.42,1.21.68,2.07s.38,1.35.51,1.83c.25.88.38,1.41.49,1.9A1.77,1.77,0,0,0,9.5,41.12a1,1,0,0,1,.21.06,1.43,1.43,0,0,0,.6.14,1.48,1.48,0,0,0,1.13-.59,1.41,1.41,0,0,0,.32-1.35,1.6,1.6,0,0,0-.72-.91,15.39,15.39,0,0,1-.81-2.34l-.07-.3a9.6,9.6,0,0,1-.27-1.35,1.11,1.11,0,0,0,0-.39,5.12,5.12,0,0,0,4.43-.58,7,7,0,0,0,1.72-1.89,12.21,12.21,0,0,0,5.54.94,30.79,30.79,0,0,0,4.8-1l.63-.16a2.3,2.3,0,0,1,1.33,0,7.77,7.77,0,0,0,.84.2c.07.76.16,1.87.16,2.91,0,.83,0,1.46,0,2a15.53,15.53,0,0,1,0,1.93c0,.33-.06.67-.11,1-.15,1.24-.31,2.52.83,3.1a.88.88,0,0,1,.09.16,1.32,1.32,0,0,0,.32.78,1.41,1.41,0,0,0,1.31.39l.23,0A1.74,1.74,0,0,0,33.58,43a1.65,1.65,0,0,0-.25-1.65l-.77.52v0l.71-.6a3.15,3.15,0,0,1-.39-1,7.62,7.62,0,0,1,0-3.08c.09-.34.15-.6.19-.81s0-.24,0-.26a4.5,4.5,0,0,0,.36-.8c.67,1.58,1.4,3.36,1.48,3.63a2.41,2.41,0,0,0,.94,1.76,1.43,1.43,0,0,0,1,.67h.22a1.33,1.33,0,0,0,1.09-.54,1.38,1.38,0,0,0,.59-.94,1.73,1.73,0,0,0-1-1.69,4.36,4.36,0,0,1-.75-.65c0-.08-.07-.31-.15-.63a23.33,23.33,0,0,0-1-3.64.05.05,0,0,0,0,0l.5-.22a1,1,0,0,0,.23-.12l.19-.05a5.19,5.19,0,0,0,2-.82l0,0a1,1,0,0,1,.18.33,9.08,9.08,0,0,1,.27,1.46,7.73,7.73,0,0,0,.57,2.33c.31.64.81,1.51,1.26,2.29.21.38.42.73.57,1l.07.12c.48.89,1,1.89,2.24,2.07a3.08,3.08,0,0,0,2.63-.44,2.47,2.47,0,0,0,.81-2.37l0-.16a6.49,6.49,0,0,1-.17-1.7l0-.32a7.33,7.33,0,0,1,.14-1l.14-.1a3.46,3.46,0,0,0,1.33-1.36,4,4,0,0,0,0-2.91l-.1-.41c-.06-.23-.13-.53-.17-.68l0,0a3.53,3.53,0,0,0,.68-1.75h0c0-.12,0-.25,0-.38C49.49,27.32,49.67,25.55,48.07,25.28Zm-1.42,7.77a1.46,1.46,0,0,1-.46.39,3.65,3.65,0,0,0-.61.48,3.82,3.82,0,0,0-.78,2.41l0,.3A8.53,8.53,0,0,0,45,39.1v.07l-.52-.06a6.11,6.11,0,0,1-.49-.8l-.07-.14-.59-1.05c-.43-.74-.91-1.58-1.19-2.15a6.06,6.06,0,0,1-.33-1.56,12.25,12.25,0,0,0-.37-1.88,3.58,3.58,0,0,0-2.34-2.29,1.25,1.25,0,0,0-1.14.25L37.3,30a4.05,4.05,0,0,1-1.1.37l-.19,0a2.6,2.6,0,0,0-.72.3l-3,1.33a1.22,1.22,0,0,0-.5.4c-.07-1.14-.18-2-.19-2.07a1.24,1.24,0,0,0-1.17-1.09,6.21,6.21,0,0,1-1.33-.23A4.83,4.83,0,0,0,26.55,29l-.78.2a29.33,29.33,0,0,1-4.44.88,10.86,10.86,0,0,1-5.19-1.15,1.27,1.27,0,0,0-1.69.55,6.45,6.45,0,0,1-1.51,2,2.72,2.72,0,0,1-2.29.25c-.5-.17-.54-.25-.81-.78A7.2,7.2,0,0,0,9,29.55l-.34-.42a1.31,1.31,0,0,0-1-.46,1.27,1.27,0,0,0-1,.49l-2.34,3a1.22,1.22,0,0,1,.26-.78,5,5,0,0,0,.69-1.54,5,5,0,0,1,.24-.71,5.48,5.48,0,0,0,0-3c-.14-1.1-.34-2.6-.48-4.86-.25-5.83.54-6.11,1.74-6.54a10.69,10.69,0,0,1,4.63-.15c.69.07,1.41.14,2.15.17a46.93,46.93,0,0,0,6.27-.33c1.1-.11,2.05-.2,2.66-.21a12,12,0,0,1,4,.33,28.74,28.74,0,0,0,4,.51c.94.08,1.91.17,2.83.29A7.3,7.3,0,0,1,37.75,18a11.11,11.11,0,0,1,1.35,2.5c.24.54.49,1.09.77,1.6.68,1.27,1.92,3.14,2.91,4.65l.25.38A11.83,11.83,0,0,0,45,29.5a1.17,1.17,0,0,0,.44.26,2.46,2.46,0,0,0,.76.1,5.4,5.4,0,0,0,.26,1.6l.11.43A2.23,2.23,0,0,1,46.65,33.05Z"/>
    <path d="M20.78,17.82a4.9,4.9,0,1,0,4.9,4.9A4.9,4.9,0,0,0,20.78,17.82Zm0,7.29a2.4,2.4,0,1,1,2.4-2.39A2.39,2.39,0,0,1,20.78,25.11Z"/>
  </g>
</svg>
