<svg id="Icons" xmlns="http://www.w3.org/2000/svg" viewBox="0 0 50 50">
  <title>X</title>
  <g>
    <path d="M44.37,14.29a14.28,14.28,0,0,0-22.73,3.56h-6.1V15.23a1.25,1.25,0,0,0-.77-1.16,1.27,1.27,0,0,0-1.37.28L4.2,23.69a1.25,1.25,0,0,0,0,1.74l9.2,9.63a1.23,1.23,0,0,0,.91.39,1.24,1.24,0,0,0,1.24-1.25V31.58h6.33a14.31,14.31,0,0,0,12.38,7.25h.07a14.33,14.33,0,0,0,10-24.54ZM14.29,29.08A1.25,1.25,0,0,0,13,30.33v.75l-6.2-6.5,6.2-6.3v.82a1.25,1.25,0,0,0,1.25,1.25h5.89a14.05,14.05,0,0,0,0,8.73Zm20,7.25A11.63,11.63,0,0,1,26,32.89a11.76,11.76,0,0,1-3.5-8.38A11.91,11.91,0,0,1,34.29,12.65h.08a11.63,11.63,0,0,1,8.24,3.42,11.82,11.82,0,0,1-8.3,20.26Z"/>
    <path d="M36.81,24c-.47-.23-1-.44-1.44-.64s-.83-.34-1.24-.54A5.26,5.26,0,0,1,33,22.07a.91.91,0,0,1-.3-.65,1,1,0,0,1,.28-.76,2.08,2.08,0,0,1,1.77-.57A4.15,4.15,0,0,1,37,21a.73.73,0,0,0,.58.2c.22,0,.34-.23.45-.43l.61-1.13c.27-.5.22-.72-.23-1.08a5.94,5.94,0,0,0-2.77-1.2V16c0-.5-.19-.69-.69-.7h-1a.69.69,0,0,0-.51.17.74.74,0,0,0-.18.53c0,.23,0,.46,0,.7s0,.47,0,.76a.23.23,0,0,1-.09,0l-.14.05a6.83,6.83,0,0,0-1.41.63,3.92,3.92,0,0,0-1.83,3.33,3.71,3.71,0,0,0,1.84,3.14,13.77,13.77,0,0,0,1.58.8l.73.34.56.26a9.65,9.65,0,0,1,1.2.62,1.09,1.09,0,0,1,.53.91,1.18,1.18,0,0,1-.56,1,2.06,2.06,0,0,1-1.43.34,4.59,4.59,0,0,1-2.65-1.21.66.66,0,0,0-.5-.21.67.67,0,0,0-.46.31l-.77,1c-.4.54-.37.78.15,1.23a6.62,6.62,0,0,0,3.18,1.54h.07v.74c0,.23,0,.46,0,.69a.69.69,0,0,0,.18.51.63.63,0,0,0,.49.18h1c.56,0,.75-.18.76-.74V31.58l.29-.07a4.31,4.31,0,0,0,2.67-2A4.09,4.09,0,0,0,39,26.32,3.76,3.76,0,0,0,36.81,24Z"/>
  </g>
</svg>
