<svg id="Icons" xmlns="http://www.w3.org/2000/svg" viewBox="0 0 50 50">
  <title>X</title>
  <g>
    <path d="M47,4.08H40.63V2.46A2.21,2.21,0,0,0,38.42.25H36.5a2.21,2.21,0,0,0-2.21,2.21V4.08H15.71V2.46A2.21,2.21,0,0,0,13.5.25H11.58a2.21,2.21,0,0,0-2.2,2.21V4.08H3A2.21,2.21,0,0,0,.75,6.29V46.54A2.21,2.21,0,0,0,3,48.75H47a2.21,2.21,0,0,0,2.21-2.21V6.29A2.21,2.21,0,0,0,47,4.08ZM36.79,2.75h1.34V7.92H36.79Zm-24.91,0h1.33V7.92H11.88Zm34.87,43.5H3.25V16.17h43.5Zm0-32.58H3.25V6.58H9.38V8.21a2.21,2.21,0,0,0,2.2,2.21H13.5a2.21,2.21,0,0,0,2.21-2.21V6.58H34.29V8.21a2.21,2.21,0,0,0,2.21,2.21h1.92a2.21,2.21,0,0,0,2.21-2.21V6.58h6.12Z"/>
    <path d="M25,30.15a3.7,3.7,0,1,0-3.7-3.69A3.7,3.7,0,0,0,25,30.15Zm0-4.89a1.2,1.2,0,1,1-1.2,1.2A1.2,1.2,0,0,1,25,25.26Z"/>
    <path d="M14.72,30.15A3.7,3.7,0,1,0,11,26.46,3.7,3.7,0,0,0,14.72,30.15Zm0-4.89a1.2,1.2,0,1,1,0,2.39,1.2,1.2,0,0,1,0-2.39Z"/>
    <path d="M35.28,39a3.7,3.7,0,1,0-3.7-3.69A3.69,3.69,0,0,0,35.28,39Zm0-4.89a1.2,1.2,0,1,1-1.2,1.2A1.19,1.19,0,0,1,35.28,34.07Z"/>
    <path d="M25,39a3.7,3.7,0,1,0-3.7-3.69A3.7,3.7,0,0,0,25,39Zm0-4.89a1.2,1.2,0,1,1-1.2,1.2A1.2,1.2,0,0,1,25,34.07Z"/>
    <path d="M14.72,39A3.7,3.7,0,1,0,11,35.27,3.7,3.7,0,0,0,14.72,39Zm0-4.89a1.2,1.2,0,1,1,0,2.39,1.2,1.2,0,0,1,0-2.39Z"/>
    <path d="M32.92,28.81a1.29,1.29,0,0,0,.89.37,1.25,1.25,0,0,0,.88-.37l1.08-1.07,1.07,1.07a1.25,1.25,0,0,0,.88.37,1.29,1.29,0,0,0,.89-.37,1.25,1.25,0,0,0,0-1.77L37.53,26l1.08-1.08a1.25,1.25,0,1,0-1.77-1.76L35.77,24.2l-1.08-1.07a1.25,1.25,0,1,0-1.77,1.76L34,26,32.92,27A1.27,1.27,0,0,0,32.92,28.81Z"/>
  </g>
</svg>
