<svg id="Icons" xmlns="http://www.w3.org/2000/svg" viewBox="0 0 50 50">
  <title>X</title>
  <g>
    <path d="M48,38.75H39.25V24.16a9.75,9.75,0,1,0-2.5,0V38.75H2a1.25,1.25,0,0,0,0,2.5H5.35V45A1.25,1.25,0,0,0,6.6,46.25H43.4A1.25,1.25,0,0,0,44.65,45V41.25H48a1.25,1.25,0,0,0,0-2.5ZM30.75,14.5A7.25,7.25,0,1,1,38,21.75,7.26,7.26,0,0,1,30.75,14.5Zm11.4,29.25H7.85v-2.5h34.3Z"/>
    <path d="M38.55,15.91l.11.09h0a1,1,0,0,0,.61.21,1.07,1.07,0,0,0,1.06-1.06,1.06,1.06,0,0,0-.51-.89h0l-.07,0-.19-.07L34,12l4.56,3.93Z"/>
  </g>
</svg>
