<svg id="Icons" xmlns="http://www.w3.org/2000/svg" viewBox="0 0 50 50">
  <title>X</title>
  <g>
    <path d="M49.24,29.86,31.09,9.77a1.25,1.25,0,0,0-1.62-.21,7.33,7.33,0,0,1-7.57.23,1.24,1.24,0,0,0-1.52.21L1.45,29.53a1.23,1.23,0,0,0,.08,1.81,36.7,36.7,0,0,0,24,8.91,36.79,36.79,0,0,0,23.61-8.59,1.27,1.27,0,0,0,.13-1.8ZM25.5,37.75A34.28,34.28,0,0,1,4.18,30.3L21.53,12.4a9.83,9.83,0,0,0,8.38-.21L46.49,30.56A34.31,34.31,0,0,1,25.5,37.75Z"/>
    <path d="M24.94,26.84a2.68,2.68,0,0,0-2,1.41,2,2,0,0,0-.12.59,1.88,1.88,0,0,0-.54.84,1.25,1.25,0,0,0,2.27,1,1.49,1.49,0,0,0,.29-.14.76.76,0,0,1-.29.49,3.78,3.78,0,0,1-2.87.28c-1.62-.3-3.36-2-4.06-2.82a4.43,4.43,0,0,1,.4-3.63c1-1.46,1.56-1.27,1.85-1.18a5.14,5.14,0,0,1,1.76,1.54,4.66,4.66,0,0,1-.5.5,1.16,1.16,0,0,0-.44-.27,1.43,1.43,0,0,0-1.72.65,1.5,1.5,0,0,0,.62,1.95c.89.67,2.43.66,4.09-1.38a2.16,2.16,0,0,0,.39-2c-.47-1.65-2.74-3.09-3.37-3.3S18,20.44,16,23.45a7,7,0,0,0-.63,6.11,1.35,1.35,0,0,0,.19.33c.27.34,2.72,3.34,5.69,3.89a9.52,9.52,0,0,0,1.71.17,5,5,0,0,0,3.19-1,3.29,3.29,0,0,0,1.24-2.56,3.79,3.79,0,0,0-.92-3.11A1.84,1.84,0,0,0,24.94,26.84Z"/>
    <path d="M26.82,21a3.81,3.81,0,0,0-.32,3.22,1.87,1.87,0,0,0,1.21,1,2.64,2.64,0,0,0,2.38-.55,1.43,1.43,0,0,0,.34-.5,2,2,0,0,0,.82-.57,1.25,1.25,0,0,0-1.72-1.8l-.33,0a.78.78,0,0,1,.46-.35,3.8,3.8,0,0,1,2.77.83c1.38.89,2.35,3.12,2.69,4.14a4.47,4.47,0,0,1-1.75,3.21c-1.48,1-1.91.6-2.15.4a5.29,5.29,0,0,1-1-2.09,4.35,4.35,0,0,1,.65-.28,1.14,1.14,0,0,0,.31.41,1.41,1.41,0,0,0,1.83.06,1.51,1.51,0,0,0,.16-2.05c-.56-.95-2-1.52-4.3-.26a2.2,2.2,0,0,0-1.14,1.74c-.18,1.71,1.38,3.9,1.88,4.33a3.22,3.22,0,0,0,2.21.89,5.51,5.51,0,0,0,3-1.06,7,7,0,0,0,2.89-5.42,1.2,1.2,0,0,0-.05-.38c-.12-.41-1.26-4.12-3.8-5.75A6.1,6.1,0,0,0,29,19.05,3.36,3.36,0,0,0,26.82,21Z"/>
  </g>
</svg>
