<svg id="Icons" xmlns="http://www.w3.org/2000/svg" viewBox="0 0 50 50">
  <title>X</title>
  <g>
    <path d="M46.29,23.69l-9.2-9.34a1.27,1.27,0,0,0-1.37-.28A1.25,1.25,0,0,0,35,15.23v2.62H28.86a14.43,14.43,0,0,0-12.64-7.7,14.34,14.34,0,1,0,0,28.68h.08a14.16,14.16,0,0,0,10-4.17,14.41,14.41,0,0,0,2.34-3.08H35V34.2a1.25,1.25,0,0,0,.78,1.16,1.27,1.27,0,0,0,.47.09,1.22,1.22,0,0,0,.9-.39l9.2-9.63A1.25,1.25,0,0,0,46.29,23.69Zm-21.78,9.2a11.57,11.57,0,0,1-8.33,3.44A11.88,11.88,0,0,1,4.35,24.49a11.76,11.76,0,0,1,3.54-8.42,11.59,11.59,0,0,1,8.23-3.42h.08A11.92,11.92,0,0,1,28,24.51,11.77,11.77,0,0,1,24.51,32.89Zm12.94-1.81v-.75a1.25,1.25,0,0,0-1.25-1.25H30.33a14.15,14.15,0,0,0,0-8.73H36.2a1.25,1.25,0,0,0,1.25-1.25v-.82l6.21,6.3Z"/>
    <path d="M18.71,24c-.48-.23-1-.44-1.45-.64S16.44,23,16,22.8a5.26,5.26,0,0,1-1.15-.73.88.88,0,0,1-.31-.65,1.05,1.05,0,0,1,.29-.76,2,2,0,0,1,1.76-.57,4.15,4.15,0,0,1,2.23.94.71.71,0,0,0,.58.2c.21,0,.34-.23.45-.43l.61-1.13c.27-.5.22-.72-.23-1.08a6,6,0,0,0-2.77-1.2V16c0-.5-.2-.69-.7-.7h-1a.75.75,0,0,0-.51.17.69.69,0,0,0-.17.53v.7c0,.24,0,.47,0,.76a.24.24,0,0,1-.1,0l-.13.05a6.6,6.6,0,0,0-1.41.63,3.93,3.93,0,0,0-1.84,3.33,3.71,3.71,0,0,0,1.84,3.14,14.78,14.78,0,0,0,1.59.8l.72.34.57.26a10.41,10.41,0,0,1,1.2.62,1.08,1.08,0,0,1,.52.91,1.17,1.17,0,0,1-.55,1,2.1,2.1,0,0,1-1.44.34,4.59,4.59,0,0,1-2.65-1.21.63.63,0,0,0-.5-.21.65.65,0,0,0-.45.31l-.77,1c-.4.54-.38.78.14,1.23A6.61,6.61,0,0,0,15,31.57h.06a.21.21,0,0,1,0,.08v.66c0,.23,0,.46,0,.69a.69.69,0,0,0,.17.51.66.66,0,0,0,.49.18h1c.56,0,.75-.18.75-.74V31.58l.3-.07a4.37,4.37,0,0,0,2.67-2,4.13,4.13,0,0,0,.38-3.15A3.74,3.74,0,0,0,18.71,24Z"/>
  </g>
</svg>
