<svg id="Icons" xmlns="http://www.w3.org/2000/svg" viewBox="0 0 50 50">
  <title>X</title>
  <path d="M44.45,18.81A7.78,7.78,0,0,0,45.19,17a6.14,6.14,0,0,0-.89-5.09,6.07,6.07,0,0,0-4.45-2.54,6,6,0,0,0-4.59,1.53,6.08,6.08,0,0,0-2,4.44,6.69,6.69,0,0,0,.94,3.51,8.5,8.5,0,0,0-.82.36A8.14,8.14,0,0,0,31.94,15a8.18,8.18,0,0,0-14.88,4.41,6.51,6.51,0,0,0-1.19-.57A8,8,0,0,0,16.61,17a6.14,6.14,0,0,0-.89-5.09,6.07,6.07,0,0,0-4.44-2.54,6,6,0,0,0-4.59,1.53,6,6,0,0,0-2,4.44,6.81,6.81,0,0,0,.93,3.51,7.47,7.47,0,0,0-4.79,6.5A3,3,0,0,0,2.08,28a8,8,0,0,0,2.41,1.2,21.44,21.44,0,0,0,6.24.88h.1l.44,0c.38,0,.86,0,1.36-.07a10,10,0,0,0-1.15,4.12A3.78,3.78,0,0,0,13,37.49a11,11,0,0,0,3.31,1.64,30.63,30.63,0,0,0,8.85,1.25h.1l.65,0c.72,0,1.71-.07,2.68-.15A22.78,22.78,0,0,0,35,38.82a8,8,0,0,0,3-1.88,3.32,3.32,0,0,0,1-2.47A10,10,0,0,0,37.83,30c.48,0,1,.06,1.57.07l.44,0c.51,0,1.2-.05,1.89-.11a15.81,15.81,0,0,0,4.49-1,6.07,6.07,0,0,0,2.25-1.4,2.71,2.71,0,0,0,.78-2A7.45,7.45,0,0,0,44.45,18.81Zm-7.51-6.09a3.59,3.59,0,0,1,5.31.59,3.66,3.66,0,0,1,.52,3,4.33,4.33,0,0,1-2.31,3,2.29,2.29,0,0,1-1.11.26,3,3,0,0,1-2-.86,4.41,4.41,0,0,1-1.53-3.39A3.53,3.53,0,0,1,36.94,12.72ZM21.4,15.47a5.74,5.74,0,0,1,8.49.94,5.84,5.84,0,0,1,.83,4.84,6.82,6.82,0,0,1-3.61,4.66,4.23,4.23,0,0,1-1.87.43A4.76,4.76,0,0,1,21.93,25a7,7,0,0,1-2.39-5.32A5.61,5.61,0,0,1,21.4,15.47Zm-13-2.75a3.58,3.58,0,0,1,5.3.59,3.63,3.63,0,0,1,.52,3,4.35,4.35,0,0,1-2.3,3,2.36,2.36,0,0,1-1.12.26,2.93,2.93,0,0,1-2-.86,4.41,4.41,0,0,1-1.53-3.4A3.49,3.49,0,0,1,8.37,12.72Zm2.79,14.84h-.41a19.21,19.21,0,0,1-5.49-.76A5.28,5.28,0,0,1,3.61,26a.52.52,0,0,1-.26-.55,4.93,4.93,0,0,1,4-4.54s.07,0,.11,0a5.31,5.31,0,0,0,3.3,1.2h0A4.82,4.82,0,0,0,13,21.55a6.78,6.78,0,0,0,1.06-.67l.11.05a4.82,4.82,0,0,1,3.08,2,1.23,1.23,0,0,0,.5.41A9.54,9.54,0,0,0,18.68,25a10.16,10.16,0,0,0-3.92,2.25.66.66,0,0,0-.14,0,16.31,16.31,0,0,1-1.68.22C12.29,27.51,11.64,27.54,11.16,27.56Zm25.06,7.65a5.88,5.88,0,0,1-2.15,1.28,20.35,20.35,0,0,1-5.65,1.22c-.94.08-1.88.12-2.57.14l-.63,0a28.18,28.18,0,0,1-8.11-1.13,8,8,0,0,1-2.54-1.24,1.32,1.32,0,0,1-.6-1.27,7.67,7.67,0,0,1,6.23-7.06,1.43,1.43,0,0,0,.34-.14,7.17,7.17,0,0,0,4.68,1.8h.06a6.45,6.45,0,0,0,3-.7,9.53,9.53,0,0,0,1.7-1.1,1.11,1.11,0,0,0,.34.14,7.67,7.67,0,0,1,6.21,7.34A.87.87,0,0,1,36.22,35.21Zm10.45-9.37a3.52,3.52,0,0,1-1.35.79,13.24,13.24,0,0,1-3.81.82c-.64.06-1.29.09-1.77.11l-.37,0a27.16,27.16,0,0,1-3.64-.32A10.09,10.09,0,0,0,31.79,25a10.19,10.19,0,0,0,1.13-2.4,1.34,1.34,0,0,0,.42-.28,4.86,4.86,0,0,1,2.58-1.39s.07,0,.11,0a5.3,5.3,0,0,0,3.29,1.2h0a4.75,4.75,0,0,0,2.22-.53,6.44,6.44,0,0,0,1.07-.67.93.93,0,0,1,.1.05,4.91,4.91,0,0,1,4,4.71A.23.23,0,0,1,46.67,25.84Z"/>
</svg>
