<svg id="Icons" xmlns="http://www.w3.org/2000/svg" viewBox="0 0 50 50">
  <title>X</title>
  <g>
    <path d="M26.35,7a1.25,1.25,0,0,0-1.77,0,1.27,1.27,0,0,0,0,1.77L26.78,11,5.89,31.88a2.42,2.42,0,0,0-.44,2.7c0,.13.07.26.11.42l1.36,5.15L1.49,45.59v4.24L9.1,42.22l5,1.29a3.83,3.83,0,0,1,.43.11,3.86,3.86,0,0,0,1.11.2,2.09,2.09,0,0,0,1.53-.65L38.07,22.28l2.17,2.18a1.28,1.28,0,0,0,.89.36A1.25,1.25,0,0,0,42,22.69ZM15.52,41.3l-.3-.08c-.18,0-.37-.11-.53-.14l-5.3-1.37L8,34.37c0-.17-.09-.34-.13-.49l-.1-.33L9,32.35l2.89,2.9a1.24,1.24,0,0,0,.88.36,1.28,1.28,0,0,0,.89-.36,1.25,1.25,0,0,0,0-1.77l-2.89-2.89,2.14-2.15,1.92,1.91a1.23,1.23,0,0,0,1.76,0,1.25,1.25,0,0,0,0-1.77l-1.91-1.91,2.15-2.15,2.89,2.9a1.24,1.24,0,0,0,.88.36,1.28,1.28,0,0,0,.89-.36,1.25,1.25,0,0,0,0-1.77l-2.89-2.89,2.14-2.15,1.92,1.91a1.23,1.23,0,0,0,1.76,0,1.25,1.25,0,0,0,0-1.77l-1.91-1.91,2.15-2.15,2.89,2.9a1.24,1.24,0,0,0,.88.36,1.28,1.28,0,0,0,.89-.36,1.27,1.27,0,0,0,0-1.77l-2.89-2.89,2.16-2.17,7.76,7.76Z"/>
    <path d="M47.88,11.92,37.12,1.16a1.25,1.25,0,0,0-1.77,1.77l1.56,1.56L31.44,10l1.76,1.76,5.48-5.47,4.11,4.1-5.48,5.48,1.77,1.77,5.47-5.48,1.57,1.56a1.23,1.23,0,0,0,1.76,0A1.25,1.25,0,0,0,47.88,11.92Z"/>
  </g>
</svg>
