<svg id="Icons" xmlns="http://www.w3.org/2000/svg" viewBox="0 0 50 50">
  <title>X</title>
  <g>
    <path d="M29.06,27.81H15.94a1.25,1.25,0,0,0,0,2.5H29.06a1.25,1.25,0,0,0,0-2.5Z"/>
    <path d="M29.06,36.56H15.94a1.25,1.25,0,1,0,0,2.5H29.06a1.25,1.25,0,1,0,0-2.5Z"/>
    <path d="M37.25,14.48V9.8a1.25,1.25,0,1,0-2.5,0v5.72L39,19.78a1.23,1.23,0,0,0,1.76,0,1.24,1.24,0,0,0,0-1.76Z"/>
    <path d="M49,15A13,13,0,0,0,26.17,6.51a6.06,6.06,0,0,0-4-1.51H9.37A4.38,4.38,0,0,0,5,9.38v35a4.37,4.37,0,0,0,4.37,4.37H35.62A4.38,4.38,0,0,0,40,44.38v-17A13,13,0,0,0,49,15ZM37.5,44.38a1.88,1.88,0,0,1-1.88,1.87H9.37A1.87,1.87,0,0,1,7.5,44.38v-35A1.88,1.88,0,0,1,9.37,7.5h12.8A3.54,3.54,0,0,1,24.7,8.55h0A13,13,0,0,0,36,28a14.74,14.74,0,0,0,1.5-.09ZM36,25.5A10.5,10.5,0,1,1,46.5,15,10.51,10.51,0,0,1,36,25.5Z"/>
  </g>
</svg>
