<svg id="Icons" xmlns="http://www.w3.org/2000/svg" viewBox="0 0 50 50">
  <title>X</title>
  <g>
    <path d="M37.63,17.08H32.55a1.25,1.25,0,0,0-1.25,1.25v7.91a1.25,1.25,0,0,0,1.25,1.25H42.72a1.26,1.26,0,0,0,1.05-1.93l-5.09-7.91A1.23,1.23,0,0,0,37.63,17.08ZM33.8,25V19.58H37L40.43,25Z"/>
    <path d="M48.85,24.58l-7.46-11a2.3,2.3,0,0,0-1.9-1h-11V10.77a2.67,2.67,0,0,0-2.66-2.66H3.25A2.66,2.66,0,0,0,.6,10.77V37.22a2.66,2.66,0,0,0,2.65,2.66h3a7.65,7.65,0,0,0,14.51,0h5.09a2.68,2.68,0,0,0,1.42-.41,2.26,2.26,0,0,0,1.3.41h1.93a7.65,7.65,0,0,0,14.52,0H47a2.3,2.3,0,0,0,2.29-2.29V25.87A2.29,2.29,0,0,0,48.85,24.58ZM26,37.22a.16.16,0,0,1-.16.16H19.81a1.25,1.25,0,0,0-1.23,1,5.15,5.15,0,0,1-10.13,0,1.25,1.25,0,0,0-1.23-1h-4a.16.16,0,0,1-.15-.16V10.77a.16.16,0,0,1,.15-.16H25.86a.16.16,0,0,1,.16.16Zm20.73.16H44.06a1.25,1.25,0,0,0-1.23,1,5.15,5.15,0,0,1-10.12,0,1.25,1.25,0,0,0-1.23-1H28.79V15.09H39.38l7.37,10.85Z"/>
    <path d="M37.77,34.51a3,3,0,0,0-3,3,2.85,2.85,0,0,0,.24,1.17,2.95,2.95,0,0,0,5.42,0,2.85,2.85,0,0,0,.25-1.17A3,3,0,0,0,37.77,34.51Z"/>
    <path d="M13.68,34.51a3,3,0,0,0-3,3A3,3,0,0,0,11,38.63a3,3,0,0,0,5.43,0,3,3,0,0,0,.24-1.17A3,3,0,0,0,13.68,34.51Z"/>
    <path d="M21.93,14H8.28a1.25,1.25,0,1,0,0,2.5H21.93a1.25,1.25,0,0,0,0-2.5Z"/>
    <path d="M21.93,19.54H8.28a1.25,1.25,0,1,0,0,2.5H21.93a1.25,1.25,0,0,0,0-2.5Z"/>
  </g>
</svg>
