<svg id="Icons" xmlns="http://www.w3.org/2000/svg" viewBox="0 0 50 50">
  <title>X</title>
  <path d="M41.91,47.63a4.33,4.33,0,0,1-4.23-3.4l-2.21-10A1.25,1.25,0,0,1,36,33a20.72,20.72,0,0,0,4.63-4.48,1.25,1.25,0,0,1,2-.05,4.32,4.32,0,0,1,.92,1.84l2.67,12.08a4.33,4.33,0,0,1-4.24,5.28ZM38.08,34.51l2,9.18a1.77,1.77,0,0,0,.81,1.15,1.81,1.81,0,0,0,1.38.25,1.89,1.89,0,0,0,1.16-.81,1.84,1.84,0,0,0,.24-1.39L41.22,31.64A22.52,22.52,0,0,1,38.08,34.51Z"/>
  <path d="M17.08,50.25a4.34,4.34,0,0,1-4.34-4.34V35.32a1.4,1.4,0,0,1,.11-.53l.1-.2a1.22,1.22,0,0,1,.75-.66,1.25,1.25,0,0,1,1,.1,19.75,19.75,0,0,0,5.73,2.16,1.25,1.25,0,0,1,1,1.23v8.49A4.35,4.35,0,0,1,17.08,50.25ZM15.24,37.11v8.8a1.84,1.84,0,0,0,3.68,0v-7.5A22.31,22.31,0,0,1,15.24,37.11Z"/>
  <path d="M31.92,50.25a4.35,4.35,0,0,1-4.34-4.34v-7a22.76,22.76,0,0,1-7.67-.27,22,22,0,0,1-5.25-1.81L11,44.7a4.35,4.35,0,0,1-2.46,2.23,4.3,4.3,0,0,1-3.32-.16A4.35,4.35,0,0,1,3.09,41l4.5-9.54a23.76,23.76,0,0,1-6-15.84C1.61,1.9,12.92.75,24.5.75S47.39,1.9,47.39,15.61A23.66,23.66,0,0,1,42.6,30a23.28,23.28,0,0,1-5.19,5c-.41.29-.79.54-1.15.77V45.91A4.34,4.34,0,0,1,31.92,50.25ZM28.83,36.17a1.29,1.29,0,0,1,.79.28,1.25,1.25,0,0,1,.46,1v8.49a1.84,1.84,0,1,0,3.68,0V35.06A1.26,1.26,0,0,1,34.39,34,18.22,18.22,0,0,0,36,33a20.72,20.72,0,0,0,4.63-4.48,21.17,21.17,0,0,0,4.29-12.87c0-10.39-7.16-12.36-20.39-12.36S4.11,5.22,4.11,15.61A21.18,21.18,0,0,0,10,30.36a1.25,1.25,0,0,1,.22,1.39L5.35,42.06a1.84,1.84,0,0,0,.88,2.45,1.86,1.86,0,0,0,1.41.07,1.89,1.89,0,0,0,1-.95l4.26-9a1.22,1.22,0,0,1,.75-.66,1.25,1.25,0,0,1,1,.1,19.75,19.75,0,0,0,5.73,2.16,19.93,19.93,0,0,0,8.14,0A1.15,1.15,0,0,1,28.83,36.17Z"/>
</svg>
