<svg id="Icons" xmlns="http://www.w3.org/2000/svg" viewBox="0 0 50 50">
  <title>X</title>
  <path d="M33,48.25h0a34.4,34.4,0,0,1-10-1.41A12.42,12.42,0,0,1,19.26,45a4.16,4.16,0,0,1-1.71-3.7,11.38,11.38,0,0,1,9.24-10.47,1.24,1.24,0,0,1,1.45,1,1.26,1.26,0,0,1-1,1.46,8.85,8.85,0,0,0-7.19,8.15A1.67,1.67,0,0,0,20.78,43a9.7,9.7,0,0,0,2.94,1.43A32.17,32.17,0,0,0,33,45.75l.7,0c.79,0,1.87-.08,2.94-.17A23.31,23.31,0,0,0,43,44.16a6.84,6.84,0,0,0,2.49-1.49,1.13,1.13,0,0,0,.36-.89,8.84,8.84,0,0,0-7.17-8.47,1.25,1.25,0,1,1,.46-2.46,11.35,11.35,0,0,1,9.21,10.87,3.64,3.64,0,0,1-1.05,2.68,9.2,9.2,0,0,1-3.39,2.09A25.75,25.75,0,0,1,36.8,48c-1.12.1-2.23.14-3,.18l-.73,0Z"/>
  <path d="M33,35.18H33a8.08,8.08,0,0,1-5.55-2.3,10.5,10.5,0,0,1-3.54-8,9.12,9.12,0,0,1,16.56-5.16,9.24,9.24,0,0,1,1.34,7.68,10.38,10.38,0,0,1-5.47,7A7.17,7.17,0,0,1,33,35.18Zm0-2.5a4.54,4.54,0,0,0,2.2-.51,7.91,7.91,0,0,0,4.17-5.38,6.78,6.78,0,0,0-1-5.61,6.58,6.58,0,0,0-4.87-2.77,6.55,6.55,0,0,0-7.15,6.51,8.1,8.1,0,0,0,2.75,6.14A5.56,5.56,0,0,0,33,32.68Z"/>
  <path d="M17.75,47.32a4.61,4.61,0,0,1-3.62-1.73c-4.87-6-13-17.39-13-25.56A16.49,16.49,0,0,1,17.75,3.75,16.55,16.55,0,0,1,33.9,16.08a1.25,1.25,0,0,1-2.42.61A14,14,0,0,0,17.75,6.25,14,14,0,0,0,3.6,20c0,7.68,8.73,19.34,12.48,24a2.22,2.22,0,0,0,3.34,0,1.31,1.31,0,0,1,1.79-.24,1.2,1.2,0,0,1,.24,1.71l-.08.1A4.62,4.62,0,0,1,17.75,47.32Zm0-20.54a7.41,7.41,0,1,1,7.41-7.41A7.41,7.41,0,0,1,17.75,26.78Zm0-12.32a4.91,4.91,0,1,0,4.91,4.91A4.92,4.92,0,0,0,17.75,14.46Z"/>
</svg>
