<svg id="Icons" xmlns="http://www.w3.org/2000/svg" viewBox="0 0 50 50">
  <title>X</title>
  <path d="M24.5,5.5A3.89,3.89,0,0,1,28,7.72L44,39.14a4.53,4.53,0,0,1-.17,4.44,3.84,3.84,0,0,1-3.3,1.92H8.47a3.84,3.84,0,0,1-3.3-1.92A4.53,4.53,0,0,1,5,39.14L21,7.72A3.89,3.89,0,0,1,24.5,5.5m0-2.5a6.36,6.36,0,0,0-5.7,3.58L2.78,38c-2.31,4.53.81,10,5.69,10H40.53c4.88,0,8-5.47,5.69-10L30.2,6.58A6.36,6.36,0,0,0,24.5,3Z"/>
  <path d="M24.5,32.25a2.86,2.86,0,0,1-2.85-2.66l-.78-11.8a2.84,2.84,0,0,1,.76-2.14,2.88,2.88,0,0,1,2.08-.9h1.58a2.88,2.88,0,0,1,2.08.9,2.84,2.84,0,0,1,.76,2.14l-.78,11.8A2.86,2.86,0,0,1,24.5,32.25Zm-.79-15a.33.33,0,0,0-.25.11.34.34,0,0,0-.1.27l.79,11.79a.35.35,0,0,0,.7,0l.79-11.79a.34.34,0,0,0-.1-.27.33.33,0,0,0-.25-.11Z"/>
  <path d="M24.5,41.25a3.75,3.75,0,1,1,3.75-3.75A3.75,3.75,0,0,1,24.5,41.25Zm0-5a1.25,1.25,0,1,0,1.25,1.25A1.25,1.25,0,0,0,24.5,36.25Z"/>
</svg>
