<svg id="Icons" xmlns="http://www.w3.org/2000/svg" viewBox="0 0 50 50">
  <title>X</title>
  <g>
    <path d="M41.17,17.27h-.41a10.88,10.88,0,0,0-17.28-2.46,7.76,7.76,0,1,0-10,10.72A8.07,8.07,0,0,0,26,32.09,11,11,0,0,0,36.59,32a8.07,8.07,0,1,0,4.58-14.71ZM13.86,22.93a5.27,5.27,0,0,1,2.76-9.76,5.27,5.27,0,0,1,5.09,3.9.05.05,0,0,1,0,0c0,.05-.07.1-.1.16h-.06A8.09,8.09,0,0,0,13.86,22.93Zm27.31,8a5.55,5.55,0,0,1-3.67-1.4,1.29,1.29,0,0,0-.83-.31,1.24,1.24,0,0,0-.71.22,8.51,8.51,0,0,1-9.35.12,1.26,1.26,0,0,0-1.49.08,5.57,5.57,0,1,1-3.55-9.86c.22,0,.44,0,.66,0a1.25,1.25,0,0,0,1.29-.73,8.41,8.41,0,0,1,15.37,0,1.24,1.24,0,0,0,1.35.73,6.49,6.49,0,0,1,.93-.08,5.58,5.58,0,1,1,0,11.15Z"/>
    <path d="M16.81,9.33a1.25,1.25,0,0,0,1.25-1.25V3.53a1.25,1.25,0,1,0-2.5,0V8.08A1.25,1.25,0,0,0,16.81,9.33Z"/>
    <path d="M8.05,18.08A1.25,1.25,0,0,0,6.8,16.83H2.25a1.25,1.25,0,0,0,0,2.5H6.8A1.25,1.25,0,0,0,8.05,18.08Z"/>
    <path d="M23.89,12.26a1.25,1.25,0,0,0,.88-.37L28,8.67a1.25,1.25,0,0,0-1.77-1.76L23,10.12a1.25,1.25,0,0,0,0,1.77A1.29,1.29,0,0,0,23.89,12.26Z"/>
    <path d="M8.85,11.89a1.24,1.24,0,0,0,1.77,0,1.25,1.25,0,0,0,0-1.77L7.4,6.91A1.25,1.25,0,0,0,5.63,8.67Z"/>
    <path d="M8.85,24.27,5.63,27.49a1.27,1.27,0,0,0,0,1.77,1.28,1.28,0,0,0,.89.36,1.24,1.24,0,0,0,.88-.36L10.62,26a1.25,1.25,0,0,0,0-1.77A1.27,1.27,0,0,0,8.85,24.27Z"/>
    <path d="M41.35,35.07a1.24,1.24,0,0,0-1.64.66l-2.8,6.52a1.24,1.24,0,0,0,.66,1.64,1.19,1.19,0,0,0,.49.1,1.26,1.26,0,0,0,1.15-.75L42,36.71A1.24,1.24,0,0,0,41.35,35.07Z"/>
    <path d="M36.71,35.08a1.25,1.25,0,0,0-1.65.62L30.4,46A1.24,1.24,0,0,0,31,47.61a1.14,1.14,0,0,0,.51.11A1.25,1.25,0,0,0,32.67,47l4.66-10.25A1.25,1.25,0,0,0,36.71,35.08Z"/>
    <path d="M31.09,35.07a1.25,1.25,0,0,0-1.64.66l-2.79,6.52a1.24,1.24,0,0,0,.65,1.64,1.23,1.23,0,0,0,.49.1A1.24,1.24,0,0,0,29,43.24l2.8-6.53A1.25,1.25,0,0,0,31.09,35.07Z"/>
    <path d="M21.77,35.07a1.25,1.25,0,0,0-1.64.66l-2.8,6.52A1.25,1.25,0,0,0,18,43.89a1.23,1.23,0,0,0,.49.1,1.24,1.24,0,0,0,1.15-.75l2.8-6.53A1.25,1.25,0,0,0,21.77,35.07Z"/>
    <path d="M26.46,35.08a1.26,1.26,0,0,0-1.66.62L20.14,46a1.25,1.25,0,0,0,.62,1.65,1.22,1.22,0,0,0,.52.11A1.26,1.26,0,0,0,22.42,47l4.66-10.25A1.26,1.26,0,0,0,26.46,35.08Z"/>
  </g>
</svg>
