<svg id="Icons" xmlns="http://www.w3.org/2000/svg" viewBox="0 0 20 20">
  <title>X</title>
  <path d="M18,14.32a.93.93,0,0,0-.09-.4A11.43,11.43,0,0,1,17,9.36V9.27a7.5,7.5,0,0,0-5.65-7.12,1.59,1.59,0,0,0,.15-.65,1.5,1.5,0,1,0-2.85.64A7.39,7.39,0,0,0,3,9.5a6.85,6.85,0,0,0,0,.79,5.84,5.84,0,0,1-.89,3.52,1,1,0,0,0-.15.51c0,1.2,2.34,2.21,5.57,2.55A1,1,0,0,0,7.79,18,3.13,3.13,0,0,0,10,19a3.13,3.13,0,0,0,2.21-1,1,1,0,0,0,.22-1.09C15.66,16.53,18,15.52,18,14.32ZM10,15a13.91,13.91,0,0,1-5.72-1A7.37,7.37,0,0,0,5,10.09,5.83,5.83,0,0,1,5,9.5,5.27,5.27,0,0,1,10,4h0c2.62,0,4.9,2.44,5,5.33v.06A13.86,13.86,0,0,0,15.79,14,13.92,13.92,0,0,1,10,15Z"/>
</svg>
