<svg id="Icons" xmlns="http://www.w3.org/2000/svg" viewBox="0 0 20 20">
  <title>X</title>
  <path d="M17.88,19H2.12A2.16,2.16,0,0,1,0,16.8V5.9A2.16,2.16,0,0,1,2.12,3.7H4.5V2.2A2.16,2.16,0,0,1,6.62,0h6.76A2.16,2.16,0,0,1,15.5,2.2V3.7h2.38A2.16,2.16,0,0,1,20,5.9V16.8A2.16,2.16,0,0,1,17.88,19ZM2.12,5.7c-.05,0-.12.08-.12.2V16.8c0,.12.08.2.12.2H17.88c.05,0,.12-.08.12-.2V5.9c0-.12-.08-.2-.12-.2H14.5a1,1,0,0,1-1-1V2.2c0-.12-.08-.2-.12-.2H6.62s-.12.08-.12.2V4.7a1,1,0,0,1-1,1Z"/>
  <path d="M10,15a4.5,4.5,0,1,1,4.5-4.5A4.51,4.51,0,0,1,10,15Zm0-7a2.5,2.5,0,1,0,2.5,2.5A2.5,2.5,0,0,0,10,8Z"/>
</svg>
