<svg id="Icons" xmlns="http://www.w3.org/2000/svg" viewBox="0 0 20 20">
  <title>X</title>
  <path d="M18,19a1,1,0,0,1-1-1V9a1,1,0,0,1,2,0v9A1,1,0,0,1,18,19Z"/>
  <path d="M13,19a1,1,0,0,1-1-1V12a1,1,0,0,1,2,0v6A1,1,0,0,1,13,19Z"/>
  <path d="M8,19a1,1,0,0,1-1-1V10a1,1,0,0,1,2,0v8A1,1,0,0,1,8,19Z"/>
  <path d="M3,19a1,1,0,0,1-1-1V13a1,1,0,0,1,2,0v5A1,1,0,0,1,3,19Z"/>
  <path d="M2,10a1,1,0,0,1-.77-.36,1,1,0,0,1,.13-1.41l6-5a1,1,0,0,1,1.15-.09l4.4,2.64,5.45-4.55a1,1,0,0,1,1.28,1.54l-6,5a1,1,0,0,1-1.15.09L8.09,5.22,2.64,9.77A1,1,0,0,1,2,10Z"/>
</svg>
