<svg id="Icons" xmlns="http://www.w3.org/2000/svg" viewBox="0 0 20 20">
  <title>X</title>
  <path d="M9.81,20a2.19,2.19,0,0,1-2.3-2.14c-.13-.82-.36-1.06-.41-1.08s-.39,0-1,.54A2.19,2.19,0,0,1,2.85,17a2.18,2.18,0,0,1-.2-3.26c.46-.57.53-.89.51-1h0S3,12.55,2,12.41A2.22,2.22,0,0,1-.06,10,2.15,2.15,0,0,1,2.12,7.58c.8-.11,1-.26,1-.58l-.06-.11a5.1,5.1,0,0,0-.47-.73A2.17,2.17,0,0,1,2.9,2.93a2.18,2.18,0,0,1,3.26-.22c.68.55,1,.52,1,.52h0s.26-.19.4-1.18A2.21,2.21,0,0,1,10,0a2.2,2.2,0,0,1,2.4,2.13c.13.81.35,1.07.4,1.09s.39,0,1-.55A2.21,2.21,0,0,1,17,3a2.17,2.17,0,0,1,.21,3.25c-.48.61-.52.93-.5,1s.3.29,1.17.41A2.19,2.19,0,0,1,19.93,10a2.21,2.21,0,0,1-2.13,2.39c-.82.13-1.07.36-1.09.41s0,.39.54,1.05A2.22,2.22,0,0,1,17,17.09a2.19,2.19,0,0,1-3.26.2c-.67-.54-1-.52-1-.52h0s-.26.2-.4,1.19A2.22,2.22,0,0,1,9.9,20Zm-.19-2h.23a2,2,0,0,0,.46-.05s0-.1.06-.28c.21-1.48.77-2.41,1.65-2.76a3,3,0,0,1,2.94.82.73.73,0,0,0,.31.19.9.9,0,0,0,.25-.22,2.24,2.24,0,0,0,.32-.38s-.05-.08-.14-.18c-.91-1.12-1.2-2.13-.86-3a3,3,0,0,1,2.64-1.67,1.58,1.58,0,0,0,.45-.12s0-.09,0-.26a1.09,1.09,0,0,0-.05-.44,2,2,0,0,0-.28-.06h0c-1.46-.2-2.39-.76-2.75-1.64a3,3,0,0,1,.78-3,1,1,0,0,0,.21-.34,2.35,2.35,0,0,0-.2-.22,1.93,1.93,0,0,0-.42-.33l-.16.12c-1.11.93-2.12,1.23-3,.9s-1.45-1.22-1.68-2.65A1.66,1.66,0,0,0,10.27,2H10a2,2,0,0,0-.45,0s0,.1-.06.28c-.21,1.48-.76,2.41-1.65,2.76S6,5.15,4.9,4.27a.68.68,0,0,0-.3-.19,1.33,1.33,0,0,0-.25.21A2.22,2.22,0,0,0,4,4.72l.1.13A5.89,5.89,0,0,1,4.82,5.9L5,6.22l.15.24v.29c0,1.63-.93,2.57-2.78,2.81a1.23,1.23,0,0,0-.43.1s0,.09,0,.25a1.28,1.28,0,0,0,.05.47l.27,0c1.48.21,2.42.77,2.76,1.65A3,3,0,0,1,4.21,15a1.18,1.18,0,0,0-.2.32,2.62,2.62,0,0,0,.22.24,1.48,1.48,0,0,0,.39.32l.17-.13c1.12-.91,2.13-1.2,3-.86s1.45,1.22,1.68,2.63A1.82,1.82,0,0,0,9.6,18Z"/>
  <path d="M9.89,9h.21c.53.05.85.22.83,1,0,.44,0,.9-1,1-1-.26-1-.66-1-1.05C9,9.15,9.33,9,9.89,9m0-2A2.77,2.77,0,0,0,7,9.74c-.19,1.9,1,2.9,2.8,3.26,1.94-.1,3.11-1.12,3.17-3a2.73,2.73,0,0,0-2.64-3L9.89,7Z"/>
</svg>
