<svg id="Icons" xmlns="http://www.w3.org/2000/svg" viewBox="0 0 20 20">
  <title>X</title>
  <path d="M18.18,6.76v-1a2.48,2.48,0,0,0-2.57-2.38H10.66l-.22-.31A2.6,2.6,0,0,0,8.29,2H5.53A2.62,2.62,0,0,0,3.31,3.18l-.13.21H3A2.49,2.49,0,0,0,.46,5.77V13.4A2.4,2.4,0,0,0,2.2,15.65l.25.07a2.79,2.79,0,0,0,.58.07l.11,0H14.51a1.87,1.87,0,0,0,1.69-1L19.14,9A1.6,1.6,0,0,0,18.18,6.76ZM3,5.39h.7a1,1,0,0,0,.85-.47L5,4.25A.65.65,0,0,1,5.53,4H8.29a.64.64,0,0,1,.52.23L9.33,5a1,1,0,0,0,.81.43h5.47c.34,0,.57.2.57.38v.84H5.8a1.89,1.89,0,0,0-1.69,1L2.46,10.85V5.77C2.46,5.59,2.7,5.39,3,5.39Zm11.44,8.38H3.23l2.6-5.16H17.08Z"/>
</svg>
