<svg id="Icons" xmlns="http://www.w3.org/2000/svg" viewBox="0 0 20 20">
  <title>X</title>
  <path d="M10,14.5a1,1,0,0,1-1-1v-4a1,1,0,0,1,2,0v4A1,1,0,0,1,10,14.5Z"/>
  <path d="M10,8a1.05,1.05,0,0,1-.71-.29,1,1,0,0,1-.21-.33.94.94,0,0,1,0-.76,1.15,1.15,0,0,1,.21-.33,1,1,0,0,1,.9-.27.6.6,0,0,1,.19.06.56.56,0,0,1,.17.09l.16.12a1.15,1.15,0,0,1,.21.33.94.94,0,0,1,0,.76,1,1,0,0,1-.21.33l-.16.12a.56.56,0,0,1-.17.09.6.6,0,0,1-.19.06Z"/>
  <path d="M10,2a8,8,0,1,1-8,8,8,8,0,0,1,8-8m0-2A10,10,0,1,0,20,10,10,10,0,0,0,10,0Z"/>
</svg>
