<svg id="Icons" xmlns="http://www.w3.org/2000/svg" viewBox="0 0 20 20">
  <title>X</title>
  <path d="M18.94,1.11a2,2,0,0,0-2.05.09L13.56,3.43a1,1,0,0,1-1.11,0L8.52.81a3.05,3.05,0,0,0-3-.19L1.66,2.55A3,3,0,0,0,0,5.24V17.38a2,2,0,0,0,1,1.7,2,2,0,0,0,1.94.09l3.66-1.83a1,1,0,0,1,.9,0l4.21,2.11a3.05,3.05,0,0,0,2.68,0l4-2A3,3,0,0,0,20,14.76V2.87A2,2,0,0,0,18.94,1.11ZM2,17.38V5.24a1,1,0,0,1,.55-.9L6,2.62V15.43c-.11,0-.23.07-.34.12Zm6.34-1.83c-.11-.05-.23-.08-.34-.12V2.87l3.34,2.22a2.91,2.91,0,0,0,.66.33v12ZM18,14.76a1,1,0,0,1-.55.9L14,17.38v-12a2.91,2.91,0,0,0,.66-.33L18,2.87Z"/>
</svg>
