<svg id="Icons" xmlns="http://www.w3.org/2000/svg" viewBox="0 0 20 20">
  <title>X</title>
  <path d="M.1,4.53c0-.22.09-.44.15-.65a6.91,6.91,0,0,1,.86-1.81A3.36,3.36,0,0,1,3.38.41L4,.28,4.32.21a.75.75,0,0,1,.21,0h.4a1.15,1.15,0,0,1,.41.08,2.13,2.13,0,0,1,1,1L7.81,3.92,8,4.16l.21.32A1.69,1.69,0,0,1,7.9,6.71a7.85,7.85,0,0,1-.74.67l-.4.36c-.16.14-.31.29-.46.44L6.73,9l.07.13A12.28,12.28,0,0,0,8,10.81,8.33,8.33,0,0,0,9.37,12.1c.44.34.88.67,1.34,1s.74.43,1.11.64l.3-.35c.21-.24.42-.49.64-.73a8.27,8.27,0,0,1,.74-.71,1.62,1.62,0,0,1,1.95-.14c.18.11.36.22.53.34s.34.22.52.32c.36.21.73.41,1.1.61l1,.56a6.32,6.32,0,0,1,.68.47,1.38,1.38,0,0,1,.52,1v.4a1.27,1.27,0,0,1,0,.34l-.05.24c-.05.25-.11.5-.17.75a2.57,2.57,0,0,1-.82,1.45,9.36,9.36,0,0,1-.94.72,5.91,5.91,0,0,1-2,.88l-.48.1-.19,0-.19,0h-.77l-.19,0-.23,0a5.83,5.83,0,0,1-.7-.15c-.83-.28-1.65-.56-2.48-.86a11.12,11.12,0,0,1-2.08-1,14.66,14.66,0,0,1-1.93-1.43l-.13-.11C5.91,16,5.44,15.54,5,15.1A19.92,19.92,0,0,1,2.8,12.58a11.52,11.52,0,0,1-1.33-2.17C1.19,9.78.94,9.14.7,8.5S.35,7.48.2,7C.14,6.74.1,6.52.06,6.3l0-.23a1.11,1.11,0,0,1,0-.19V5.11a.91.91,0,0,1,0-.23M14.2,18l.7,0,.41-.08a4,4,0,0,0,1.35-.59,7.47,7.47,0,0,0,.77-.59.93.93,0,0,0,.17-.4c.06-.22.1-.44.15-.67l0-.2-.17-.1-1-.55-1.13-.62c-.21-.12-.41-.25-.61-.38l-.29-.19a4.31,4.31,0,0,0-.37.37l-.6.68-.47.55a1.63,1.63,0,0,1-2.06.39c-.55-.3-1-.56-1.48-.85s-1-.71-1.47-1.05a11,11,0,0,1-1.64-1.59,13.13,13.13,0,0,1-1.45-2L5,10c-.21-.37-.43-.74-.62-1.12A1.52,1.52,0,0,1,4.63,7l.78-.75.45-.39.53-.47-.08-.12-.24-.37L4.59,2.27l0-.07-.11,0-.7.14a1.45,1.45,0,0,0-.94.77,4.82,4.82,0,0,0-.62,1.27c-.05.17-.08.34-.12.51L2,5.2v0L2,6c0,.15.05.29.09.43.14.48.29,1,.46,1.42S3,9,3.3,9.59A9.75,9.75,0,0,0,4.41,11.4a17.67,17.67,0,0,0,2,2.27c.42.42.86.81,1.31,1.2l.12.12a13.35,13.35,0,0,0,1.68,1.23,9.44,9.44,0,0,0,1.69.83q1.2.43,2.43.84A2.45,2.45,0,0,0,14,18Z"/>
</svg>
