<svg id="Icons" xmlns="http://www.w3.org/2000/svg" viewBox="0 0 20 20">
  <title>X</title>
  <path d="M10,15.5a1,1,0,0,1-.38-.08,1,1,0,0,1-.33-.21,1,1,0,0,1,0-1.42,1,1,0,0,1,.33-.21,1,1,0,0,1,.76,0,1,1,0,0,1,.33.21.93.93,0,0,1,.21.33.94.94,0,0,1,0,.76,1,1,0,0,1-.21.33,1.15,1.15,0,0,1-.33.21A1,1,0,0,1,10,15.5Z"/>
  <path d="M10,2a8,8,0,1,1-8,8,8,8,0,0,1,8-8m0-2A10,10,0,1,0,20,10,10,10,0,0,0,10,0Z"/>
  <path d="M10,13a1,1,0,0,1-1-1V11C9,10,10,9.49,10.69,9.15,11.66,8.7,12,8.46,12,8c0-1,0-2-2-2A1.89,1.89,0,0,0,8,8,1,1,0,0,1,7,9,1,1,0,0,1,6,8a3.89,3.89,0,0,1,4-4c2.65,0,4,1.35,4,4,0,1.81-1.54,2.53-2.46,3-.16.08-.4.19-.54.28V12A1,1,0,0,1,10,13Z"/>
</svg>
