<svg id="Icons" xmlns="http://www.w3.org/2000/svg" viewBox="0 0 20 20">
  <title>X</title>
  <path d="M18.2,4.12a21.1,21.1,0,0,1-3.79-1.26A27.87,27.87,0,0,1,10.55.42.88.88,0,0,0,10,.23a1,1,0,0,0-.55.18A29.83,29.83,0,0,1,5.59,2.8,21.1,21.1,0,0,1,1.8,4.06a1,1,0,0,0-.73,1c.18,1.75.77,5.85,2.53,8.68a21.88,21.88,0,0,0,5.87,5.88.89.89,0,0,0,.54.17.94.94,0,0,0,.53-.16,21.38,21.38,0,0,0,5.86-5.83c1.76-2.83,2.35-6.93,2.53-8.68A1,1,0,0,0,18.2,4.12Zm-3.5,8.65a17.65,17.65,0,0,1-4.1,4.35V2.9a22,22,0,0,0,3,1.77,22,22,0,0,0,3.27,1.17A18.79,18.79,0,0,1,14.7,12.77Z"/>
</svg>
