<svg id="Icons" xmlns="http://www.w3.org/2000/svg" viewBox="0 0 20 20">
  <title>X</title>
  <path d="M11.27,1.2h0M10,3.9l1.35,2.87a2.61,2.61,0,0,0,2,1.48l3.21.49-2.39,2.44a2.66,2.66,0,0,0-.71,2.28L14,16.79l-2.72-1.51a2.6,2.6,0,0,0-2.5,0L6,16.79l.54-3.33a2.66,2.66,0,0,0-.71-2.28L3.47,8.74l3.21-.49a2.61,2.61,0,0,0,2-1.48L10,3.9M10,0a.59.59,0,0,0-.54.35L6.84,5.92a.61.61,0,0,1-.46.35L.52,7.16A.64.64,0,0,0,.18,8.24l4.25,4.34a.66.66,0,0,1,.17.56l-1,6.12a.62.62,0,0,0,.59.74.55.55,0,0,0,.28-.07L9.72,17a.53.53,0,0,1,.56,0l5.25,2.89a.55.55,0,0,0,.28.07.62.62,0,0,0,.59-.74l-1-6.12a.66.66,0,0,1,.17-.56l4.25-4.34a.64.64,0,0,0-.34-1.08l-5.86-.89a.61.61,0,0,1-.46-.35L10.54.35A.59.59,0,0,0,10,0Z"/>
</svg>
