<svg id="Icons" xmlns="http://www.w3.org/2000/svg" viewBox="0 0 20 20">
  <title>X</title>
  <g>
    <path d="M2.44,11.68a1,1,0,0,0,.91-1.08q0-.3,0-.6A6.66,6.66,0,0,1,14.39,5L12.06,5a1,1,0,0,0-1,1,1,1,0,0,0,1,1h0L18,7,18.08,1a1,1,0,0,0-1-1h0a1,1,0,0,0-1,1l0,2.83A8.65,8.65,0,0,0,1.32,10a6.51,6.51,0,0,0,0,.77,1,1,0,0,0,1,.91Z"/>
    <path d="M18.65,9.31a1,1,0,0,0-1.08-.92,1,1,0,0,0-.92,1.08,4.58,4.58,0,0,1,0,.53,6.66,6.66,0,0,1-11,5L8,15a1,1,0,0,0,0-2H8l-5.94.06L2,19a1,1,0,0,0,1,1H3a1,1,0,0,0,1-1l0-2.75a8.6,8.6,0,0,0,6,2.39A8.7,8.7,0,0,0,18.68,10Q18.68,9.65,18.65,9.31Z"/>
  </g>
</svg>
