<svg id="Icons" xmlns="http://www.w3.org/2000/svg" viewBox="0 0 20 20">
  <title>X</title>
  <path d="M14.67,9.28a7.17,7.17,0,0,0,.84-2,5.73,5.73,0,0,0-5-7.24A5.71,5.71,0,0,0,4.24,5.68a6.41,6.41,0,0,0,1,3.59A7.12,7.12,0,0,0,.44,15.56,2.7,2.7,0,0,0,1.56,18a7.67,7.67,0,0,0,2.3,1.15A21,21,0,0,0,10,20l.43,0c.49,0,1.17-.05,1.85-.11a15.46,15.46,0,0,0,4.37-.95,5.71,5.71,0,0,0,2.13-1.31,2.44,2.44,0,0,0,.7-1.8A7.06,7.06,0,0,0,14.67,9.28ZM7.46,3A3.65,3.65,0,0,1,10.28,2,3.7,3.7,0,0,1,13,3.58a3.85,3.85,0,0,1,.54,3.18,4.51,4.51,0,0,1-2.39,3.08,2.6,2.6,0,0,1-1.21.28,3.11,3.11,0,0,1-2.16-.91A4.63,4.63,0,0,1,6.24,5.69,3.7,3.7,0,0,1,7.46,3Zm9.9,13.26a3.78,3.78,0,0,1-1.41.84,14,14,0,0,1-3.81.82c-.65.06-1.29.08-1.77.1L10,18a19,19,0,0,1-5.52-.77,5.38,5.38,0,0,1-1.7-.82.76.76,0,0,1-.34-.74A5.09,5.09,0,0,1,6.57,11a1.46,1.46,0,0,0,.19-.07A5,5,0,0,0,10,12.12h0a4.56,4.56,0,0,0,2.09-.49,6.71,6.71,0,0,0,1.12-.72.71.71,0,0,0,.18.08,5.07,5.07,0,0,1,4.12,4.87A.43.43,0,0,1,17.36,16.22Z"/>
</svg>
