<svg id="Icons" xmlns="http://www.w3.org/2000/svg" viewBox="0 0 20 20">
  <title>X</title>
  <path d="M10,12.5a1,1,0,0,1-1-1v-4a1,1,0,0,1,2,0v4A1,1,0,0,1,10,12.5Z"/>
  <path d="M10,15.5l-.2,0-.18-.06-.18-.09-.15-.12a1.15,1.15,0,0,1-.21-.33A.84.84,0,0,1,9,14.5a1.36,1.36,0,0,1,0-.2.64.64,0,0,1,.06-.18.76.76,0,0,1,.09-.18,1.58,1.58,0,0,1,.12-.15l.15-.12.18-.09.18-.06a1,1,0,0,1,.58.06,1.15,1.15,0,0,1,.33.21,1,1,0,0,1,.29.71,1,1,0,0,1-.08.38,1,1,0,0,1-.21.33,1.15,1.15,0,0,1-.33.21A1,1,0,0,1,10,15.5Z"/>
  <path d="M10,2a.83.83,0,0,1,.75.5l7.12,14a1.11,1.11,0,0,1,0,1.1.84.84,0,0,1-.71.43H2.88a.84.84,0,0,1-.71-.43,1.11,1.11,0,0,1,0-1.1l7.12-14A.83.83,0,0,1,10,2m0-2A2.83,2.83,0,0,0,7.47,1.59l-7.13,14A3,3,0,0,0,2.88,20H17.12a3,3,0,0,0,2.54-4.44l-7.13-14A2.83,2.83,0,0,0,10,0Z"/>
</svg>
